<?xml version="1.0" encoding="UTF-8"?>
<svg xmlns="http://www.w3.org/2000/svg" width="200" height="200" viewBox="0 0 1280 1280">
  <defs>
    <filter id="grain" x="-20%" y="-20%" width="140%" height="140%">
      <feTurbulence type="fractalNoise" baseFrequency=".72" numOctaves="3" seed="17"/>
      <feColorMatrix type="saturate" values="0"/>
      <feComponentTransfer><feFuncA type="table" tableValues="0 .18"/></feComponentTransfer>
    </filter>
    <filter id="rough" x="-15%" y="-15%" width="130%" height="130%">
      <feTurbulence type="fractalNoise" baseFrequency=".018" numOctaves="4" seed="8" result="n"/>
      <feDisplacementMap in="SourceGraphic" in2="n" scale="28" xChannelSelector="R" yChannelSelector="G"/>
    </filter>
    <radialGradient id="vignette" cx="50%" cy="48%" r="72%">
      <stop offset="58%" stop-color="#000" stop-opacity="0"/>
      <stop offset="100%" stop-color="#000" stop-opacity=".72"/>
    </radialGradient>
    
  </defs>
  <rect width="1280" height="1280" fill="#07080b"/>
  
      <rect width="1280" height="1280" fill="#d9d0bd"/>
      <rect x="0" y="0" width="430" height="1280" fill="#111"/>
      <rect x="840" y="0" width="440" height="1280" fill="#ece4d2"/>
      <circle cx="442" cy="530" r="265" fill="#080808"/>
      <circle cx="650" cy="530" r="270" fill="#e8dfcc" opacity=".9"/>
      <rect x="548" y="60" width="94" height="1020" fill="#111"/>
      <rect x="720" y="0" width="55" height="1280" fill="#b7ae9f"/>
      <rect x="902" y="880" width="260" height="260" fill="#050505"/>
      <circle cx="925" cy="220" r="150" fill="#e8dfcc"/>
      <g transform="rotate(0 640 640)"><line x1="0" y1="-80" x2="0" y2="1360" stroke="#111" stroke-width="3" opacity="0.13"/><line x1="142" y1="-80" x2="142" y2="1360" stroke="#111" stroke-width="3" opacity="0.13"/><line x1="284" y1="-80" x2="284" y2="1360" stroke="#111" stroke-width="3" opacity="0.13"/><line x1="427" y1="-80" x2="427" y2="1360" stroke="#111" stroke-width="3" opacity="0.13"/><line x1="569" y1="-80" x2="569" y2="1360" stroke="#111" stroke-width="3" opacity="0.13"/><line x1="711" y1="-80" x2="711" y2="1360" stroke="#111" stroke-width="3" opacity="0.13"/><line x1="853" y1="-80" x2="853" y2="1360" stroke="#111" stroke-width="3" opacity="0.13"/><line x1="996" y1="-80" x2="996" y2="1360" stroke="#111" stroke-width="3" opacity="0.13"/><line x1="1138" y1="-80" x2="1138" y2="1360" stroke="#111" stroke-width="3" opacity="0.13"/><line x1="1280" y1="-80" x2="1280" y2="1360" stroke="#111" stroke-width="3" opacity="0.13"/></g>
    
  <rect width="1280" height="1280" fill="url(#vignette)"/>
  <rect width="1280" height="1280" filter="url(#grain)" opacity=".75"/>
</svg>
