<?xml version="1.0" encoding="UTF-8"?>
<svg xmlns="http://www.w3.org/2000/svg" width="200" height="200" viewBox="0 0 1280 1280">
  <defs>
    <filter id="grain" x="-20%" y="-20%" width="140%" height="140%">
      <feTurbulence type="fractalNoise" baseFrequency=".72" numOctaves="3" seed="17"/>
      <feColorMatrix type="saturate" values="0"/>
      <feComponentTransfer><feFuncA type="table" tableValues="0 .18"/></feComponentTransfer>
    </filter>
    <filter id="rough" x="-15%" y="-15%" width="130%" height="130%">
      <feTurbulence type="fractalNoise" baseFrequency=".018" numOctaves="4" seed="8" result="n"/>
      <feDisplacementMap in="SourceGraphic" in2="n" scale="28" xChannelSelector="R" yChannelSelector="G"/>
    </filter>
    <radialGradient id="vignette" cx="50%" cy="48%" r="72%">
      <stop offset="58%" stop-color="#000" stop-opacity="0"/>
      <stop offset="100%" stop-color="#000" stop-opacity=".72"/>
    </radialGradient>
    
  </defs>
  <rect width="1280" height="1280" fill="#07080b"/>
  
      <radialGradient id="g1" cx="46%" cy="48%" r="72%"><stop offset="0" stop-color="#ffd47a"/><stop offset=".25" stop-color="#e75b2c"/><stop offset=".58" stop-color="#293f78"/><stop offset="1" stop-color="#07080b"/></radialGradient>
      <rect width="1280" height="1280" fill="url(#g1)"/>
      <path d="M-40 690 C190 500 298 720 520 560 S870 260 1320 420 L1320 1320 L-40 1320Z" fill="#100b12" opacity=".72" filter="url(#rough)"/>
      <path d="M-60 650 C210 475 335 665 560 520 S900 255 1340 380" fill="none" stroke="#ffbd67" stroke-width="22" opacity=".5" filter="url(#rough)"/>
      <g><circle cx="640.0" cy="1117.3" r="2.2" fill="#ffd59a" opacity="0.49"/><circle cx="266.2" cy="192.0" r="2.9" fill="#ffd59a" opacity="0.21"/><circle cx="1246.9" cy="1056.9" r="3.4" fill="#ffd59a" opacity="0.26"/><circle cx="28.7" cy="256.1" r="3.6" fill="#ffd59a" opacity="0.58"/><circle cx="1025.5" cy="989.2" r="3.4" fill="#ffd59a" opacity="0.80"/><circle cx="625.6" cy="327.0" r="2.8" fill="#ffd59a" opacity="0.65"/><circle cx="278.0" cy="915.5" r="2.1" fill="#ffd59a" opacity="0.31"/><circle cx="1242.1" cy="403.3" r="1.4" fill="#ffd59a" opacity="0.19"/><circle cx="24.6" cy="836.9" r="0.9" fill="#ffd59a" opacity="0.42"/><circle cx="1036.9" cy="483.8" r="0.8" fill="#ffd59a" opacity="0.74"/><circle cx="611.2" cy="754.9" r="1.1" fill="#ffd59a" opacity="0.76"/><circle cx="289.9" cy="567.0" r="1.6" fill="#ffd59a" opacity="0.47"/><circle cx="1237.1" cy="670.9" r="2.4" fill="#ffd59a" opacity="0.20"/><circle cx="20.8" cy="651.4" r="3.1" fill="#ffd59a" opacity="0.28"/><circle cx="1048.1" cy="586.3" r="3.5" fill="#ffd59a" opacity="0.61"/><circle cx="596.8" cy="735.7" r="3.6" fill="#ffd59a" opacity="0.80"/><circle cx="302.1" cy="502.7" r="3.3" fill="#ffd59a" opacity="0.63"/><circle cx="1231.8" cy="818.3" r="2.7" fill="#ffd59a" opacity="0.29"/><circle cx="17.3" cy="421.5" r="1.9" fill="#ffd59a" opacity="0.19"/><circle cx="1059.1" cy="897.7" r="1.3" fill="#ffd59a" opacity="0.44"/><circle cx="582.4" cy="344.1" r="0.9" fill="#ffd59a" opacity="0.75"/><circle cx="314.4" cy="972.7" r="0.8" fill="#ffd59a" opacity="0.75"/><circle cx="1226.1" cy="271.9" r="1.2" fill="#ffd59a" opacity="0.44"/><circle cx="14.1" cy="1041.9" r="1.8" fill="#ffd59a" opacity="0.19"/><circle cx="1069.9" cy="206.1" r="2.5" fill="#ffd59a" opacity="0.29"/><circle cx="568.1" cy="1104.1" r="3.2" fill="#ffd59a" opacity="0.63"/><circle cx="326.9" cy="147.8" r="3.6" fill="#ffd59a" opacity="0.80"/><circle cx="1220.2" cy="1158.1" r="3.5" fill="#ffd59a" opacity="0.60"/><circle cx="11.3" cy="98.2" r="3.2" fill="#ffd59a" opacity="0.27"/><circle cx="1080.4" cy="1203.1" r="2.5" fill="#ffd59a" opacity="0.20"/><circle cx="553.8" cy="58.0" r="1.8" fill="#ffd59a" opacity="0.47"/><circle cx="339.6" cy="1238.3" r="1.2" fill="#ffd59a" opacity="0.76"/><circle cx="1213.9" cy="28.0" r="0.8" fill="#ffd59a" opacity="0.74"/><circle cx="8.7" cy="1263.0" r="0.9" fill="#ffd59a" opacity="0.42"/><circle cx="1090.8" cy="8.7" r="1.3" fill="#ffd59a" opacity="0.19"/><circle cx="539.5" cy="1276.9" r="2.0" fill="#ffd59a" opacity="0.31"/><circle cx="352.4" cy="0.3" r="2.7" fill="#ffd59a" opacity="0.65"/><circle cx="1207.4" cy="1279.6" r="3.3" fill="#ffd59a" opacity="0.80"/><circle cx="6.5" cy="3.2" r="3.6" fill="#ffd59a" opacity="0.58"/><circle cx="1100.9" cy="1271.2" r="3.5" fill="#ffd59a" opacity="0.26"/><circle cx="525.3" cy="17.1" r="3.0" fill="#ffd59a" opacity="0.21"/><circle cx="365.3" cy="1251.8" r="2.4" fill="#ffd59a" opacity="0.49"/><circle cx="1200.6" cy="42.0" r="1.6" fill="#ffd59a" opacity="0.77"/><circle cx="4.6" cy="1221.6" r="1.1" fill="#ffd59a" opacity="0.72"/><circle cx="1110.8" cy="77.3" r="0.8" fill="#ffd59a" opacity="0.39"/><circle cx="511.1" cy="1181.4" r="0.9" fill="#ffd59a" opacity="0.18"/><circle cx="378.4" cy="122.4" r="1.4" fill="#ffd59a" opacity="0.33"/><circle cx="1193.5" cy="1131.6" r="2.1" fill="#ffd59a" opacity="0.67"/><circle cx="3.1" cy="176.5" r="2.8" fill="#ffd59a" opacity="0.79"/><circle cx="1120.4" cy="1073.3" r="3.4" fill="#ffd59a" opacity="0.56"/><circle cx="497.0" cy="238.7" r="3.6" fill="#ffd59a" opacity="0.24"/><circle cx="391.6" cy="1007.5" r="3.4" fill="#ffd59a" opacity="0.22"/><circle cx="1186.1" cy="308.0" r="2.9" fill="#ffd59a" opacity="0.52"/><circle cx="1.8" cy="935.2" r="2.2" fill="#ffd59a" opacity="0.78"/><circle cx="1129.8" cy="383.0" r="1.5" fill="#ffd59a" opacity="0.70"/><circle cx="483.0" cy="857.7" r="1.0" fill="#ffd59a" opacity="0.37"/><circle cx="405.0" cy="462.5" r="0.8" fill="#ffd59a" opacity="0.18"/><circle cx="1178.5" cy="776.5" r="1.0" fill="#ffd59a" opacity="0.36"/><circle cx="0.9" cy="545.1" r="1.6" fill="#ffd59a" opacity="0.69"/><circle cx="1139.0" cy="692.9" r="2.3" fill="#ffd59a" opacity="0.79"/><circle cx="469.1" cy="629.4" r="3.0" fill="#ffd59a" opacity="0.53"/><circle cx="418.5" cy="608.3" r="3.5" fill="#ffd59a" opacity="0.23"/><circle cx="1170.6" cy="713.8" r="3.6" fill="#ffd59a" opacity="0.23"/><circle cx="0.3" cy="524.3" r="3.3" fill="#ffd59a" opacity="0.54"/><circle cx="1147.9" cy="797.0" r="2.8" fill="#ffd59a" opacity="0.79"/><circle cx="455.2" cy="442.3" r="2.0" fill="#ffd59a" opacity="0.68"/><circle cx="432.0" cy="877.4" r="1.3" fill="#ffd59a" opacity="0.35"/><circle cx="1162.4" cy="363.8" r="0.9" fill="#ffd59a" opacity="0.18"/><circle cx="0.0" cy="953.7" r="0.8" fill="#ffd59a" opacity="0.38"/><circle cx="1156.5" cy="290.1" r="1.1" fill="#ffd59a" opacity="0.71"/><circle cx="441.5" cy="1024.5" r="1.7" fill="#ffd59a" opacity="0.78"/><circle cx="445.7" cy="222.5" r="2.5" fill="#ffd59a" opacity="0.51"/><circle cx="1153.9" cy="1088.6" r="3.1" fill="#ffd59a" opacity="0.22"/><circle cx="0.1" cy="162.2" r="3.5" fill="#ffd59a" opacity="0.25"/><circle cx="1164.9" cy="1144.9" r="3.6" fill="#ffd59a" opacity="0.56"/><circle cx="427.8" cy="110.2" r="3.2" fill="#ffd59a" opacity="0.80"/><circle cx="459.5" cy="1192.3" r="2.6" fill="#ffd59a" opacity="0.66"/><circle cx="1145.2" cy="67.5" r="1.9" fill="#ffd59a" opacity="0.33"/><circle cx="0.4" cy="1230.1" r="1.2" fill="#ffd59a" opacity="0.18"/><circle cx="1173.0" cy="34.8" r="0.8" fill="#ffd59a" opacity="0.40"/><circle cx="414.3" cy="1257.6" r="0.9" fill="#ffd59a" opacity="0.72"/><circle cx="473.4" cy="12.6" r="1.2" fill="#ffd59a" opacity="0.77"/><circle cx="1136.2" cy="1274.4" r="1.9" fill="#ffd59a" opacity="0.49"/><circle cx="1.1" cy="1.4" r="2.6" fill="#ffd59a" opacity="0.21"/><circle cx="1180.9" cy="1280.0" r="3.2" fill="#ffd59a" opacity="0.26"/><circle cx="400.8" cy="1.4" r="3.6" fill="#ffd59a" opacity="0.59"/><circle cx="487.3" cy="1274.5" r="3.5" fill="#ffd59a" opacity="0.80"/><circle cx="1127.0" cy="12.5" r="3.1" fill="#ffd59a" opacity="0.64"/><circle cx="2.2" cy="1257.9" r="2.4" fill="#ffd59a" opacity="0.31"/><circle cx="1188.4" cy="34.5" r="1.7" fill="#ffd59a" opacity="0.19"/><circle cx="387.5" cy="1230.5" r="1.1" fill="#ffd59a" opacity="0.42"/><circle cx="501.4" cy="67.1" r="0.8" fill="#ffd59a" opacity="0.74"/><circle cx="1117.5" cy="1192.8" r="0.9" fill="#ffd59a" opacity="0.76"/><circle cx="3.5" cy="109.7" r="1.4" fill="#ffd59a" opacity="0.46"/><circle cx="1195.7" cy="1145.4" r="2.1" fill="#ffd59a" opacity="0.20"/><circle cx="374.4" cy="161.6" r="2.8" fill="#ffd59a" opacity="0.28"/><circle cx="515.5" cy="1089.3" r="3.3" fill="#ffd59a" opacity="0.61"/><circle cx="1107.8" cy="221.8" r="3.6" fill="#ffd59a" opacity="0.80"/><circle cx="5.2" cy="1025.3" r="3.5" fill="#ffd59a" opacity="0.62"/><circle cx="1202.7" cy="289.3" r="3.0" fill="#ffd59a" opacity="0.29"/><circle cx="361.3" cy="954.5" r="2.3" fill="#ffd59a" opacity="0.19"/><circle cx="529.7" cy="363.0" r="1.5" fill="#ffd59a" opacity="0.45"/><circle cx="1097.8" cy="878.3" r="1.0" fill="#ffd59a" opacity="0.75"/><circle cx="7.2" cy="441.5" r="0.8" fill="#ffd59a" opacity="0.75"/><circle cx="1209.5" cy="797.9" r="1.0" fill="#ffd59a" opacity="0.44"/><circle cx="348.4" cy="523.4" r="1.5" fill="#ffd59a" opacity="0.19"/><circle cx="543.9" cy="714.8" r="2.2" fill="#ffd59a" opacity="0.30"/><circle cx="1087.6" cy="607.4" r="2.9" fill="#ffd59a" opacity="0.63"/><circle cx="9.5" cy="630.3" r="3.4" fill="#ffd59a" opacity="0.80"/><circle cx="1215.9" cy="691.9" r="3.6" fill="#ffd59a" opacity="0.60"/><circle cx="335.6" cy="546.0" r="3.4" fill="#ffd59a" opacity="0.27"/><circle cx="558.2" cy="775.6" r="2.8" fill="#ffd59a" opacity="0.20"/><circle cx="1077.2" cy="463.4" r="2.1" fill="#ffd59a" opacity="0.47"/><circle cx="12.1" cy="856.9" r="1.4" fill="#ffd59a" opacity="0.77"/><circle cx="1222.0" cy="383.8" r="0.9" fill="#ffd59a" opacity="0.73"/><circle cx="323.0" cy="934.3" r="0.8" fill="#ffd59a" opacity="0.41"/><circle cx="572.5" cy="308.8" r="1.1" fill="#ffd59a" opacity="0.18"/><circle cx="1066.6" cy="1006.7" r="1.7" fill="#ffd59a" opacity="0.32"/><circle cx="15.1" cy="239.5" r="2.4" fill="#ffd59a" opacity="0.65"/><circle cx="1227.9" cy="1072.6" r="3.1" fill="#ffd59a" opacity="0.80"/><circle cx="310.6" cy="177.1" r="3.5" fill="#ffd59a" opacity="0.58"/><circle cx="586.8" cy="1131.0" r="3.6" fill="#ffd59a" opacity="0.25"/><circle cx="1055.7" cy="122.9" r="3.3" fill="#ffd59a" opacity="0.21"/><circle cx="18.3" cy="1180.9" r="2.7" fill="#ffd59a" opacity="0.50"/><circle cx="1233.4" cy="77.7" r="1.9" fill="#ffd59a" opacity="0.78"/><circle cx="298.3" cy="1221.3" r="1.3" fill="#ffd59a" opacity="0.72"/><circle cx="601.2" cy="42.3" r="0.9" fill="#ffd59a" opacity="0.39"/><circle cx="1044.6" cy="1251.5" r="0.8" fill="#ffd59a" opacity="0.18"/><circle cx="21.9" cy="17.4" r="1.2" fill="#ffd59a" opacity="0.34"/><circle cx="1238.7" cy="1271.1" r="1.8" fill="#ffd59a" opacity="0.67"/><circle cx="286.2" cy="3.3" r="2.6" fill="#ffd59a" opacity="0.79"/><circle cx="615.6" cy="1279.6" r="3.2" fill="#ffd59a" opacity="0.55"/><circle cx="1033.4" cy="0.3" r="3.6" fill="#ffd59a" opacity="0.24"/><circle cx="25.8" cy="1277.0" r="3.5" fill="#ffd59a" opacity="0.22"/><circle cx="1243.6" cy="8.5" r="3.2" fill="#ffd59a" opacity="0.52"/><circle cx="274.3" cy="1263.2" r="2.5" fill="#ffd59a" opacity="0.78"/><circle cx="630.0" cy="27.7" r="1.8" fill="#ffd59a" opacity="0.70"/><circle cx="1021.9" cy="1238.6" r="1.1" fill="#ffd59a" opacity="0.37"/><circle cx="30.0" cy="57.6" r="0.8" fill="#ffd59a" opacity="0.18"/><circle cx="1248.3" cy="1203.6" r="0.9" fill="#ffd59a" opacity="0.36"/><circle cx="262.6" cy="97.7" r="1.3" fill="#ffd59a" opacity="0.69"/><circle cx="644.5" cy="1158.7" r="2.0" fill="#ffd59a" opacity="0.79"/><circle cx="1010.2" cy="147.2" r="2.7" fill="#ffd59a" opacity="0.53"/><circle cx="34.6" cy="1104.7" r="3.3" fill="#ffd59a" opacity="0.23"/><circle cx="1252.6" cy="205.4" r="3.6" fill="#ffd59a" opacity="0.23"/><circle cx="251.0" cy="1042.6" r="3.5" fill="#ffd59a" opacity="0.55"/><circle cx="658.9" cy="271.1" r="3.0" fill="#ffd59a" opacity="0.79"/><circle cx="998.4" cy="973.5" r="2.3" fill="#ffd59a" opacity="0.68"/><circle cx="39.4" cy="343.3" r="1.6" fill="#ffd59a" opacity="0.34"/><circle cx="1256.6" cy="898.6" r="1.0" fill="#ffd59a" opacity="0.18"/><circle cx="239.7" cy="420.6" r="0.8" fill="#ffd59a" opacity="0.38"/><circle cx="673.3" cy="819.2" r="1.0" fill="#ffd59a" opacity="0.71"/><circle cx="986.3" cy="501.8" r="1.4" fill="#ffd59a" opacity="0.78"/><circle cx="44.5" cy="736.6" r="2.1" fill="#ffd59a" opacity="0.50"/><circle cx="1260.3" cy="585.4" r="2.9" fill="#ffd59a" opacity="0.21"/><circle cx="228.5" cy="652.3" r="3.4" fill="#ffd59a" opacity="0.25"/><circle cx="687.7" cy="670.0" r="3.6" fill="#ffd59a" opacity="0.57"/><circle cx="974.1" cy="567.9" r="3.4" fill="#ffd59a" opacity="0.80"/><circle cx="50.0" cy="754.0" r="2.9" fill="#ffd59a" opacity="0.66"/><circle cx="1263.7" cy="484.7" r="2.2" fill="#ffd59a" opacity="0.32"/><circle cx="217.6" cy="836.0" r="1.5" fill="#ffd59a" opacity="0.18"/><circle cx="702.0" cy="404.2" r="1.0" fill="#ffd59a" opacity="0.41"/><circle cx="961.7" cy="914.6" r="0.8" fill="#ffd59a" opacity="0.73"/><circle cx="55.7" cy="327.8" r="1.0" fill="#ffd59a" opacity="0.77"/><circle cx="1266.8" cy="988.4" r="1.6" fill="#ffd59a" opacity="0.48"/><circle cx="206.8" cy="256.9" r="2.3" fill="#ffd59a" opacity="0.20"/><circle cx="716.4" cy="1056.2" r="3.0" fill="#ffd59a" opacity="0.27"/><circle cx="949.2" cy="192.6" r="3.5" fill="#ffd59a" opacity="0.59"/><circle cx="61.7" cy="1116.6" r="3.6" fill="#ffd59a" opacity="0.80"/><circle cx="1269.5" cy="136.2" r="3.3" fill="#ffd59a" opacity="0.64"/><circle cx="196.3" cy="1168.8" r="2.7" fill="#ffd59a" opacity="0.30"/><circle cx="730.7" cy="88.6" r="2.0" fill="#ffd59a" opacity="0.19"/><circle cx="936.5" cy="1211.7" r="1.3" fill="#ffd59a" opacity="0.43"/><circle cx="68.0" cy="50.5" r="0.9" fill="#ffd59a" opacity="0.74"/><circle cx="1272.0" cy="1244.6" r="0.8" fill="#ffd59a" opacity="0.76"/><circle cx="186.1" cy="22.8" r="1.1" fill="#ffd59a" opacity="0.46"/><circle cx="744.9" cy="1267.0" r="1.7" fill="#ffd59a" opacity="0.19"/><circle cx="923.6" cy="5.9" r="2.5" fill="#ffd59a" opacity="0.28"/><circle cx="74.7" cy="1278.5" r="3.1" fill="#ffd59a" opacity="0.62"/><circle cx="1274.1" cy="0.0" r="3.5" fill="#ffd59a" opacity="0.80"/></g>
    
  <rect width="1280" height="1280" fill="url(#vignette)"/>
  <rect width="1280" height="1280" filter="url(#grain)" opacity=".75"/>
</svg>
