<?xml version="1.0" encoding="UTF-8"?>
<svg xmlns="http://www.w3.org/2000/svg" width="200" height="200" viewBox="0 0 1280 1280">
  <defs>
    <filter id="grain" x="-20%" y="-20%" width="140%" height="140%">
      <feTurbulence type="fractalNoise" baseFrequency=".72" numOctaves="3" seed="17"/>
      <feColorMatrix type="saturate" values="0"/>
      <feComponentTransfer><feFuncA type="table" tableValues="0 .18"/></feComponentTransfer>
    </filter>
    <filter id="rough" x="-15%" y="-15%" width="130%" height="130%">
      <feTurbulence type="fractalNoise" baseFrequency=".018" numOctaves="4" seed="8" result="n"/>
      <feDisplacementMap in="SourceGraphic" in2="n" scale="28" xChannelSelector="R" yChannelSelector="G"/>
    </filter>
    <radialGradient id="vignette" cx="50%" cy="48%" r="72%">
      <stop offset="58%" stop-color="#000" stop-opacity="0"/>
      <stop offset="100%" stop-color="#000" stop-opacity=".72"/>
    </radialGradient>
    
  </defs>
  <rect width="1280" height="1280" fill="#07080b"/>
  
      <linearGradient id="g10" x1="0" y1="0" x2="1" y2="1"><stop stop-color="#e8d1a1"/><stop offset=".52" stop-color="#b3915b"/><stop offset="1" stop-color="#342719"/></linearGradient>
      <rect width="1280" height="1280" fill="url(#g10)"/>
      <path d="M-140 950 C120 580 320 505 620 665 C850 780 1020 630 1420 285 L1420 1400 L-140 1400Z" fill="#201915" opacity=".52" filter="url(#rough)"/>
      <path d="M-100 730 C260 430 480 570 760 380 C985 228 1140 205 1390 120" stroke="#f5dfaa" stroke-width="118" opacity=".35" fill="none" filter="url(#rough)"/>
      <g transform="rotate(-18 640 640)"><line x1="0" y1="-80" x2="0" y2="1360" stroke="#3b2b19" stroke-width="2" opacity="0.12"/><line x1="22" y1="-80" x2="22" y2="1360" stroke="#3b2b19" stroke-width="2" opacity="0.12"/><line x1="45" y1="-80" x2="45" y2="1360" stroke="#3b2b19" stroke-width="2" opacity="0.12"/><line x1="67" y1="-80" x2="67" y2="1360" stroke="#3b2b19" stroke-width="2" opacity="0.12"/><line x1="90" y1="-80" x2="90" y2="1360" stroke="#3b2b19" stroke-width="2" opacity="0.12"/><line x1="112" y1="-80" x2="112" y2="1360" stroke="#3b2b19" stroke-width="2" opacity="0.12"/><line x1="135" y1="-80" x2="135" y2="1360" stroke="#3b2b19" stroke-width="2" opacity="0.12"/><line x1="157" y1="-80" x2="157" y2="1360" stroke="#3b2b19" stroke-width="2" opacity="0.12"/><line x1="180" y1="-80" x2="180" y2="1360" stroke="#3b2b19" stroke-width="2" opacity="0.12"/><line x1="202" y1="-80" x2="202" y2="1360" stroke="#3b2b19" stroke-width="2" opacity="0.12"/><line x1="225" y1="-80" x2="225" y2="1360" stroke="#3b2b19" stroke-width="2" opacity="0.12"/><line x1="247" y1="-80" x2="247" y2="1360" stroke="#3b2b19" stroke-width="2" opacity="0.12"/><line x1="269" y1="-80" x2="269" y2="1360" stroke="#3b2b19" stroke-width="2" opacity="0.12"/><line x1="292" y1="-80" x2="292" y2="1360" stroke="#3b2b19" stroke-width="2" opacity="0.12"/><line x1="314" y1="-80" x2="314" y2="1360" stroke="#3b2b19" stroke-width="2" opacity="0.12"/><line x1="337" y1="-80" x2="337" y2="1360" stroke="#3b2b19" stroke-width="2" opacity="0.12"/><line x1="359" y1="-80" x2="359" y2="1360" stroke="#3b2b19" stroke-width="2" opacity="0.12"/><line x1="382" y1="-80" x2="382" y2="1360" stroke="#3b2b19" stroke-width="2" opacity="0.12"/><line x1="404" y1="-80" x2="404" y2="1360" stroke="#3b2b19" stroke-width="2" opacity="0.12"/><line x1="427" y1="-80" x2="427" y2="1360" stroke="#3b2b19" stroke-width="2" opacity="0.12"/><line x1="449" y1="-80" x2="449" y2="1360" stroke="#3b2b19" stroke-width="2" opacity="0.12"/><line x1="472" y1="-80" x2="472" y2="1360" stroke="#3b2b19" stroke-width="2" opacity="0.12"/><line x1="494" y1="-80" x2="494" y2="1360" stroke="#3b2b19" stroke-width="2" opacity="0.12"/><line x1="516" y1="-80" x2="516" y2="1360" stroke="#3b2b19" stroke-width="2" opacity="0.12"/><line x1="539" y1="-80" x2="539" y2="1360" stroke="#3b2b19" stroke-width="2" opacity="0.12"/><line x1="561" y1="-80" x2="561" y2="1360" stroke="#3b2b19" stroke-width="2" opacity="0.12"/><line x1="584" y1="-80" x2="584" y2="1360" stroke="#3b2b19" stroke-width="2" opacity="0.12"/><line x1="606" y1="-80" x2="606" y2="1360" stroke="#3b2b19" stroke-width="2" opacity="0.12"/><line x1="629" y1="-80" x2="629" y2="1360" stroke="#3b2b19" stroke-width="2" opacity="0.12"/><line x1="651" y1="-80" x2="651" y2="1360" stroke="#3b2b19" stroke-width="2" opacity="0.12"/><line x1="674" y1="-80" x2="674" y2="1360" stroke="#3b2b19" stroke-width="2" opacity="0.12"/><line x1="696" y1="-80" x2="696" y2="1360" stroke="#3b2b19" stroke-width="2" opacity="0.12"/><line x1="719" y1="-80" x2="719" y2="1360" stroke="#3b2b19" stroke-width="2" opacity="0.12"/><line x1="741" y1="-80" x2="741" y2="1360" stroke="#3b2b19" stroke-width="2" opacity="0.12"/><line x1="764" y1="-80" x2="764" y2="1360" stroke="#3b2b19" stroke-width="2" opacity="0.12"/><line x1="786" y1="-80" x2="786" y2="1360" stroke="#3b2b19" stroke-width="2" opacity="0.12"/><line x1="808" y1="-80" x2="808" y2="1360" stroke="#3b2b19" stroke-width="2" opacity="0.12"/><line x1="831" y1="-80" x2="831" y2="1360" stroke="#3b2b19" stroke-width="2" opacity="0.12"/><line x1="853" y1="-80" x2="853" y2="1360" stroke="#3b2b19" stroke-width="2" opacity="0.12"/><line x1="876" y1="-80" x2="876" y2="1360" stroke="#3b2b19" stroke-width="2" opacity="0.12"/><line x1="898" y1="-80" x2="898" y2="1360" stroke="#3b2b19" stroke-width="2" opacity="0.12"/><line x1="921" y1="-80" x2="921" y2="1360" stroke="#3b2b19" stroke-width="2" opacity="0.12"/><line x1="943" y1="-80" x2="943" y2="1360" stroke="#3b2b19" stroke-width="2" opacity="0.12"/><line x1="966" y1="-80" x2="966" y2="1360" stroke="#3b2b19" stroke-width="2" opacity="0.12"/><line x1="988" y1="-80" x2="988" y2="1360" stroke="#3b2b19" stroke-width="2" opacity="0.12"/><line x1="1011" y1="-80" x2="1011" y2="1360" stroke="#3b2b19" stroke-width="2" opacity="0.12"/><line x1="1033" y1="-80" x2="1033" y2="1360" stroke="#3b2b19" stroke-width="2" opacity="0.12"/><line x1="1055" y1="-80" x2="1055" y2="1360" stroke="#3b2b19" stroke-width="2" opacity="0.12"/><line x1="1078" y1="-80" x2="1078" y2="1360" stroke="#3b2b19" stroke-width="2" opacity="0.12"/><line x1="1100" y1="-80" x2="1100" y2="1360" stroke="#3b2b19" stroke-width="2" opacity="0.12"/><line x1="1123" y1="-80" x2="1123" y2="1360" stroke="#3b2b19" stroke-width="2" opacity="0.12"/><line x1="1145" y1="-80" x2="1145" y2="1360" stroke="#3b2b19" stroke-width="2" opacity="0.12"/><line x1="1168" y1="-80" x2="1168" y2="1360" stroke="#3b2b19" stroke-width="2" opacity="0.12"/><line x1="1190" y1="-80" x2="1190" y2="1360" stroke="#3b2b19" stroke-width="2" opacity="0.12"/><line x1="1213" y1="-80" x2="1213" y2="1360" stroke="#3b2b19" stroke-width="2" opacity="0.12"/><line x1="1235" y1="-80" x2="1235" y2="1360" stroke="#3b2b19" stroke-width="2" opacity="0.12"/><line x1="1258" y1="-80" x2="1258" y2="1360" stroke="#3b2b19" stroke-width="2" opacity="0.12"/><line x1="1280" y1="-80" x2="1280" y2="1360" stroke="#3b2b19" stroke-width="2" opacity="0.12"/></g>
    
  <rect width="1280" height="1280" fill="url(#vignette)"/>
  <rect width="1280" height="1280" filter="url(#grain)" opacity=".75"/>
</svg>
