<?xml version="1.0" encoding="UTF-8"?>
<svg xmlns="http://www.w3.org/2000/svg" width="1280" height="1280" viewBox="0 0 1280 1280">
  <defs>
    <filter id="grain" x="-20%" y="-20%" width="140%" height="140%">
      <feTurbulence type="fractalNoise" baseFrequency=".72" numOctaves="3" seed="17"/>
      <feColorMatrix type="saturate" values="0"/>
      <feComponentTransfer><feFuncA type="table" tableValues="0 .18"/></feComponentTransfer>
    </filter>
    <filter id="rough" x="-15%" y="-15%" width="130%" height="130%">
      <feTurbulence type="fractalNoise" baseFrequency=".018" numOctaves="4" seed="8" result="n"/>
      <feDisplacementMap in="SourceGraphic" in2="n" scale="28" xChannelSelector="R" yChannelSelector="G"/>
    </filter>
    <radialGradient id="vignette" cx="50%" cy="48%" r="72%">
      <stop offset="58%" stop-color="#000" stop-opacity="0"/>
      <stop offset="100%" stop-color="#000" stop-opacity=".72"/>
    </radialGradient>
    
  </defs>
  <rect width="1280" height="1280" fill="#07080b"/>
  
      <rect width="1280" height="1280" fill="#050504"/>
      <path d="M-70 850 C260 590 435 760 650 575 C875 380 1110 390 1370 250" stroke="#d7a642" stroke-width="95" opacity=".4" fill="none" filter="url(#rough)"/>
      <g><circle cx="640.0" cy="1117.3" r="2.2" fill="#e7b348" opacity="0.49"/><circle cx="266.2" cy="192.0" r="2.9" fill="#e7b348" opacity="0.21"/><circle cx="1246.9" cy="1056.9" r="3.4" fill="#e7b348" opacity="0.26"/><circle cx="28.7" cy="256.1" r="3.6" fill="#e7b348" opacity="0.58"/><circle cx="1025.5" cy="989.2" r="3.4" fill="#e7b348" opacity="0.80"/><circle cx="625.6" cy="327.0" r="2.8" fill="#e7b348" opacity="0.65"/><circle cx="278.0" cy="915.5" r="2.1" fill="#e7b348" opacity="0.31"/><circle cx="1242.1" cy="403.3" r="1.4" fill="#e7b348" opacity="0.19"/><circle cx="24.6" cy="836.9" r="0.9" fill="#e7b348" opacity="0.42"/><circle cx="1036.9" cy="483.8" r="0.8" fill="#e7b348" opacity="0.74"/><circle cx="611.2" cy="754.9" r="1.1" fill="#e7b348" opacity="0.76"/><circle cx="289.9" cy="567.0" r="1.6" fill="#e7b348" opacity="0.47"/><circle cx="1237.1" cy="670.9" r="2.4" fill="#e7b348" opacity="0.20"/><circle cx="20.8" cy="651.4" r="3.1" fill="#e7b348" opacity="0.28"/><circle cx="1048.1" cy="586.3" r="3.5" fill="#e7b348" opacity="0.61"/><circle cx="596.8" cy="735.7" r="3.6" fill="#e7b348" opacity="0.80"/><circle cx="302.1" cy="502.7" r="3.3" fill="#e7b348" opacity="0.63"/><circle cx="1231.8" cy="818.3" r="2.7" fill="#e7b348" opacity="0.29"/><circle cx="17.3" cy="421.5" r="1.9" fill="#e7b348" opacity="0.19"/><circle cx="1059.1" cy="897.7" r="1.3" fill="#e7b348" opacity="0.44"/><circle cx="582.4" cy="344.1" r="0.9" fill="#e7b348" opacity="0.75"/><circle cx="314.4" cy="972.7" r="0.8" fill="#e7b348" opacity="0.75"/><circle cx="1226.1" cy="271.9" r="1.2" fill="#e7b348" opacity="0.44"/><circle cx="14.1" cy="1041.9" r="1.8" fill="#e7b348" opacity="0.19"/><circle cx="1069.9" cy="206.1" r="2.5" fill="#e7b348" opacity="0.29"/><circle cx="568.1" cy="1104.1" r="3.2" fill="#e7b348" opacity="0.63"/><circle cx="326.9" cy="147.8" r="3.6" fill="#e7b348" opacity="0.80"/><circle cx="1220.2" cy="1158.1" r="3.5" fill="#e7b348" opacity="0.60"/><circle cx="11.3" cy="98.2" r="3.2" fill="#e7b348" opacity="0.27"/><circle cx="1080.4" cy="1203.1" r="2.5" fill="#e7b348" opacity="0.20"/><circle cx="553.8" cy="58.0" r="1.8" fill="#e7b348" opacity="0.47"/><circle cx="339.6" cy="1238.3" r="1.2" fill="#e7b348" opacity="0.76"/><circle cx="1213.9" cy="28.0" r="0.8" fill="#e7b348" opacity="0.74"/><circle cx="8.7" cy="1263.0" r="0.9" fill="#e7b348" opacity="0.42"/><circle cx="1090.8" cy="8.7" r="1.3" fill="#e7b348" opacity="0.19"/><circle cx="539.5" cy="1276.9" r="2.0" fill="#e7b348" opacity="0.31"/><circle cx="352.4" cy="0.3" r="2.7" fill="#e7b348" opacity="0.65"/><circle cx="1207.4" cy="1279.6" r="3.3" fill="#e7b348" opacity="0.80"/><circle cx="6.5" cy="3.2" r="3.6" fill="#e7b348" opacity="0.58"/><circle cx="1100.9" cy="1271.2" r="3.5" fill="#e7b348" opacity="0.26"/><circle cx="525.3" cy="17.1" r="3.0" fill="#e7b348" opacity="0.21"/><circle cx="365.3" cy="1251.8" r="2.4" fill="#e7b348" opacity="0.49"/><circle cx="1200.6" cy="42.0" r="1.6" fill="#e7b348" opacity="0.77"/><circle cx="4.6" cy="1221.6" r="1.1" fill="#e7b348" opacity="0.72"/><circle cx="1110.8" cy="77.3" r="0.8" fill="#e7b348" opacity="0.39"/><circle cx="511.1" cy="1181.4" r="0.9" fill="#e7b348" opacity="0.18"/><circle cx="378.4" cy="122.4" r="1.4" fill="#e7b348" opacity="0.33"/><circle cx="1193.5" cy="1131.6" r="2.1" fill="#e7b348" opacity="0.67"/><circle cx="3.1" cy="176.5" r="2.8" fill="#e7b348" opacity="0.79"/><circle cx="1120.4" cy="1073.3" r="3.4" fill="#e7b348" opacity="0.56"/><circle cx="497.0" cy="238.7" r="3.6" fill="#e7b348" opacity="0.24"/><circle cx="391.6" cy="1007.5" r="3.4" fill="#e7b348" opacity="0.22"/><circle cx="1186.1" cy="308.0" r="2.9" fill="#e7b348" opacity="0.52"/><circle cx="1.8" cy="935.2" r="2.2" fill="#e7b348" opacity="0.78"/><circle cx="1129.8" cy="383.0" r="1.5" fill="#e7b348" opacity="0.70"/><circle cx="483.0" cy="857.7" r="1.0" fill="#e7b348" opacity="0.37"/><circle cx="405.0" cy="462.5" r="0.8" fill="#e7b348" opacity="0.18"/><circle cx="1178.5" cy="776.5" r="1.0" fill="#e7b348" opacity="0.36"/><circle cx="0.9" cy="545.1" r="1.6" fill="#e7b348" opacity="0.69"/><circle cx="1139.0" cy="692.9" r="2.3" fill="#e7b348" opacity="0.79"/><circle cx="469.1" cy="629.4" r="3.0" fill="#e7b348" opacity="0.53"/><circle cx="418.5" cy="608.3" r="3.5" fill="#e7b348" opacity="0.23"/><circle cx="1170.6" cy="713.8" r="3.6" fill="#e7b348" opacity="0.23"/><circle cx="0.3" cy="524.3" r="3.3" fill="#e7b348" opacity="0.54"/><circle cx="1147.9" cy="797.0" r="2.8" fill="#e7b348" opacity="0.79"/><circle cx="455.2" cy="442.3" r="2.0" fill="#e7b348" opacity="0.68"/><circle cx="432.0" cy="877.4" r="1.3" fill="#e7b348" opacity="0.35"/><circle cx="1162.4" cy="363.8" r="0.9" fill="#e7b348" opacity="0.18"/><circle cx="0.0" cy="953.7" r="0.8" fill="#e7b348" opacity="0.38"/><circle cx="1156.5" cy="290.1" r="1.1" fill="#e7b348" opacity="0.71"/><circle cx="441.5" cy="1024.5" r="1.7" fill="#e7b348" opacity="0.78"/><circle cx="445.7" cy="222.5" r="2.5" fill="#e7b348" opacity="0.51"/><circle cx="1153.9" cy="1088.6" r="3.1" fill="#e7b348" opacity="0.22"/><circle cx="0.1" cy="162.2" r="3.5" fill="#e7b348" opacity="0.25"/><circle cx="1164.9" cy="1144.9" r="3.6" fill="#e7b348" opacity="0.56"/><circle cx="427.8" cy="110.2" r="3.2" fill="#e7b348" opacity="0.80"/><circle cx="459.5" cy="1192.3" r="2.6" fill="#e7b348" opacity="0.66"/><circle cx="1145.2" cy="67.5" r="1.9" fill="#e7b348" opacity="0.33"/><circle cx="0.4" cy="1230.1" r="1.2" fill="#e7b348" opacity="0.18"/><circle cx="1173.0" cy="34.8" r="0.8" fill="#e7b348" opacity="0.40"/><circle cx="414.3" cy="1257.6" r="0.9" fill="#e7b348" opacity="0.72"/><circle cx="473.4" cy="12.6" r="1.2" fill="#e7b348" opacity="0.77"/><circle cx="1136.2" cy="1274.4" r="1.9" fill="#e7b348" opacity="0.49"/><circle cx="1.1" cy="1.4" r="2.6" fill="#e7b348" opacity="0.21"/><circle cx="1180.9" cy="1280.0" r="3.2" fill="#e7b348" opacity="0.26"/><circle cx="400.8" cy="1.4" r="3.6" fill="#e7b348" opacity="0.59"/><circle cx="487.3" cy="1274.5" r="3.5" fill="#e7b348" opacity="0.80"/><circle cx="1127.0" cy="12.5" r="3.1" fill="#e7b348" opacity="0.64"/><circle cx="2.2" cy="1257.9" r="2.4" fill="#e7b348" opacity="0.31"/><circle cx="1188.4" cy="34.5" r="1.7" fill="#e7b348" opacity="0.19"/><circle cx="387.5" cy="1230.5" r="1.1" fill="#e7b348" opacity="0.42"/><circle cx="501.4" cy="67.1" r="0.8" fill="#e7b348" opacity="0.74"/><circle cx="1117.5" cy="1192.8" r="0.9" fill="#e7b348" opacity="0.76"/><circle cx="3.5" cy="109.7" r="1.4" fill="#e7b348" opacity="0.46"/><circle cx="1195.7" cy="1145.4" r="2.1" fill="#e7b348" opacity="0.20"/><circle cx="374.4" cy="161.6" r="2.8" fill="#e7b348" opacity="0.28"/><circle cx="515.5" cy="1089.3" r="3.3" fill="#e7b348" opacity="0.61"/><circle cx="1107.8" cy="221.8" r="3.6" fill="#e7b348" opacity="0.80"/><circle cx="5.2" cy="1025.3" r="3.5" fill="#e7b348" opacity="0.62"/><circle cx="1202.7" cy="289.3" r="3.0" fill="#e7b348" opacity="0.29"/><circle cx="361.3" cy="954.5" r="2.3" fill="#e7b348" opacity="0.19"/><circle cx="529.7" cy="363.0" r="1.5" fill="#e7b348" opacity="0.45"/><circle cx="1097.8" cy="878.3" r="1.0" fill="#e7b348" opacity="0.75"/><circle cx="7.2" cy="441.5" r="0.8" fill="#e7b348" opacity="0.75"/><circle cx="1209.5" cy="797.9" r="1.0" fill="#e7b348" opacity="0.44"/><circle cx="348.4" cy="523.4" r="1.5" fill="#e7b348" opacity="0.19"/><circle cx="543.9" cy="714.8" r="2.2" fill="#e7b348" opacity="0.30"/><circle cx="1087.6" cy="607.4" r="2.9" fill="#e7b348" opacity="0.63"/><circle cx="9.5" cy="630.3" r="3.4" fill="#e7b348" opacity="0.80"/><circle cx="1215.9" cy="691.9" r="3.6" fill="#e7b348" opacity="0.60"/><circle cx="335.6" cy="546.0" r="3.4" fill="#e7b348" opacity="0.27"/><circle cx="558.2" cy="775.6" r="2.8" fill="#e7b348" opacity="0.20"/><circle cx="1077.2" cy="463.4" r="2.1" fill="#e7b348" opacity="0.47"/><circle cx="12.1" cy="856.9" r="1.4" fill="#e7b348" opacity="0.77"/><circle cx="1222.0" cy="383.8" r="0.9" fill="#e7b348" opacity="0.73"/><circle cx="323.0" cy="934.3" r="0.8" fill="#e7b348" opacity="0.41"/><circle cx="572.5" cy="308.8" r="1.1" fill="#e7b348" opacity="0.18"/><circle cx="1066.6" cy="1006.7" r="1.7" fill="#e7b348" opacity="0.32"/><circle cx="15.1" cy="239.5" r="2.4" fill="#e7b348" opacity="0.65"/><circle cx="1227.9" cy="1072.6" r="3.1" fill="#e7b348" opacity="0.80"/><circle cx="310.6" cy="177.1" r="3.5" fill="#e7b348" opacity="0.58"/><circle cx="586.8" cy="1131.0" r="3.6" fill="#e7b348" opacity="0.25"/><circle cx="1055.7" cy="122.9" r="3.3" fill="#e7b348" opacity="0.21"/><circle cx="18.3" cy="1180.9" r="2.7" fill="#e7b348" opacity="0.50"/><circle cx="1233.4" cy="77.7" r="1.9" fill="#e7b348" opacity="0.78"/><circle cx="298.3" cy="1221.3" r="1.3" fill="#e7b348" opacity="0.72"/><circle cx="601.2" cy="42.3" r="0.9" fill="#e7b348" opacity="0.39"/><circle cx="1044.6" cy="1251.5" r="0.8" fill="#e7b348" opacity="0.18"/><circle cx="21.9" cy="17.4" r="1.2" fill="#e7b348" opacity="0.34"/><circle cx="1238.7" cy="1271.1" r="1.8" fill="#e7b348" opacity="0.67"/><circle cx="286.2" cy="3.3" r="2.6" fill="#e7b348" opacity="0.79"/><circle cx="615.6" cy="1279.6" r="3.2" fill="#e7b348" opacity="0.55"/><circle cx="1033.4" cy="0.3" r="3.6" fill="#e7b348" opacity="0.24"/><circle cx="25.8" cy="1277.0" r="3.5" fill="#e7b348" opacity="0.22"/><circle cx="1243.6" cy="8.5" r="3.2" fill="#e7b348" opacity="0.52"/><circle cx="274.3" cy="1263.2" r="2.5" fill="#e7b348" opacity="0.78"/><circle cx="630.0" cy="27.7" r="1.8" fill="#e7b348" opacity="0.70"/><circle cx="1021.9" cy="1238.6" r="1.1" fill="#e7b348" opacity="0.37"/><circle cx="30.0" cy="57.6" r="0.8" fill="#e7b348" opacity="0.18"/><circle cx="1248.3" cy="1203.6" r="0.9" fill="#e7b348" opacity="0.36"/><circle cx="262.6" cy="97.7" r="1.3" fill="#e7b348" opacity="0.69"/><circle cx="644.5" cy="1158.7" r="2.0" fill="#e7b348" opacity="0.79"/><circle cx="1010.2" cy="147.2" r="2.7" fill="#e7b348" opacity="0.53"/><circle cx="34.6" cy="1104.7" r="3.3" fill="#e7b348" opacity="0.23"/><circle cx="1252.6" cy="205.4" r="3.6" fill="#e7b348" opacity="0.23"/><circle cx="251.0" cy="1042.6" r="3.5" fill="#e7b348" opacity="0.55"/><circle cx="658.9" cy="271.1" r="3.0" fill="#e7b348" opacity="0.79"/><circle cx="998.4" cy="973.5" r="2.3" fill="#e7b348" opacity="0.68"/><circle cx="39.4" cy="343.3" r="1.6" fill="#e7b348" opacity="0.34"/><circle cx="1256.6" cy="898.6" r="1.0" fill="#e7b348" opacity="0.18"/><circle cx="239.7" cy="420.6" r="0.8" fill="#e7b348" opacity="0.38"/><circle cx="673.3" cy="819.2" r="1.0" fill="#e7b348" opacity="0.71"/><circle cx="986.3" cy="501.8" r="1.4" fill="#e7b348" opacity="0.78"/><circle cx="44.5" cy="736.6" r="2.1" fill="#e7b348" opacity="0.50"/><circle cx="1260.3" cy="585.4" r="2.9" fill="#e7b348" opacity="0.21"/><circle cx="228.5" cy="652.3" r="3.4" fill="#e7b348" opacity="0.25"/><circle cx="687.7" cy="670.0" r="3.6" fill="#e7b348" opacity="0.57"/><circle cx="974.1" cy="567.9" r="3.4" fill="#e7b348" opacity="0.80"/><circle cx="50.0" cy="754.0" r="2.9" fill="#e7b348" opacity="0.66"/><circle cx="1263.7" cy="484.7" r="2.2" fill="#e7b348" opacity="0.32"/><circle cx="217.6" cy="836.0" r="1.5" fill="#e7b348" opacity="0.18"/><circle cx="702.0" cy="404.2" r="1.0" fill="#e7b348" opacity="0.41"/><circle cx="961.7" cy="914.6" r="0.8" fill="#e7b348" opacity="0.73"/><circle cx="55.7" cy="327.8" r="1.0" fill="#e7b348" opacity="0.77"/><circle cx="1266.8" cy="988.4" r="1.6" fill="#e7b348" opacity="0.48"/><circle cx="206.8" cy="256.9" r="2.3" fill="#e7b348" opacity="0.20"/><circle cx="716.4" cy="1056.2" r="3.0" fill="#e7b348" opacity="0.27"/><circle cx="949.2" cy="192.6" r="3.5" fill="#e7b348" opacity="0.59"/><circle cx="61.7" cy="1116.6" r="3.6" fill="#e7b348" opacity="0.80"/><circle cx="1269.5" cy="136.2" r="3.3" fill="#e7b348" opacity="0.64"/><circle cx="196.3" cy="1168.8" r="2.7" fill="#e7b348" opacity="0.30"/><circle cx="730.7" cy="88.6" r="2.0" fill="#e7b348" opacity="0.19"/><circle cx="936.5" cy="1211.7" r="1.3" fill="#e7b348" opacity="0.43"/><circle cx="68.0" cy="50.5" r="0.9" fill="#e7b348" opacity="0.74"/><circle cx="1272.0" cy="1244.6" r="0.8" fill="#e7b348" opacity="0.76"/><circle cx="186.1" cy="22.8" r="1.1" fill="#e7b348" opacity="0.46"/><circle cx="744.9" cy="1267.0" r="1.7" fill="#e7b348" opacity="0.19"/><circle cx="923.6" cy="5.9" r="2.5" fill="#e7b348" opacity="0.28"/><circle cx="74.7" cy="1278.5" r="3.1" fill="#e7b348" opacity="0.62"/><circle cx="1274.1" cy="0.0" r="3.5" fill="#e7b348" opacity="0.80"/><circle cx="176.0" cy="1278.7" r="3.6" fill="#e7b348" opacity="0.62"/><circle cx="759.1" cy="5.3" r="3.2" fill="#e7b348" opacity="0.28"/><circle cx="910.7" cy="1267.9" r="2.6" fill="#e7b348" opacity="0.19"/><circle cx="81.6" cy="21.7" r="1.8" fill="#e7b348" opacity="0.45"/><circle cx="1275.9" cy="1246.1" r="1.2" fill="#e7b348" opacity="0.76"/><circle cx="166.2" cy="48.8" r="0.8" fill="#e7b348" opacity="0.74"/><circle cx="773.2" cy="1213.7" r="0.9" fill="#e7b348" opacity="0.43"/><circle cx="897.5" cy="86.3" r="1.3" fill="#e7b348" opacity="0.19"/><circle cx="88.7" cy="1171.2" r="1.9" fill="#e7b348" opacity="0.30"/><circle cx="1277.4" cy="133.5" r="2.6" fill="#e7b348" opacity="0.64"/><circle cx="156.6" cy="1119.6" r="3.3" fill="#e7b348" opacity="0.80"/><circle cx="787.3" cy="189.5" r="3.6" fill="#e7b348" opacity="0.60"/><circle cx="884.3" cy="1059.5" r="3.5" fill="#e7b348" opacity="0.27"/><circle cx="96.2" cy="253.3" r="3.1" fill="#e7b348" opacity="0.20"/><circle cx="1278.5" cy="992.1" r="2.4" fill="#e7b348" opacity="0.48"/><circle cx="147.3" cy="324.0" r="1.7" fill="#e7b348" opacity="0.77"/><circle cx="801.3" cy="918.6" r="1.1" fill="#e7b348" opacity="0.73"/><circle cx="870.9" cy="400.1" r="0.8" fill="#e7b348" opacity="0.41"/><circle cx="103.9" cy="840.2" r="0.9" fill="#e7b348" opacity="0.18"/><circle cx="1279.3" cy="480.4" r="1.4" fill="#e7b348" opacity="0.32"/><circle cx="138.2" cy="758.3" r="2.1" fill="#e7b348" opacity="0.66"/><circle cx="815.2" cy="563.5" r="2.8" fill="#e7b348" opacity="0.80"/><circle cx="857.4" cy="674.4" r="3.4" fill="#e7b348" opacity="0.57"/><circle cx="111.9" cy="647.9" r="3.6" fill="#e7b348" opacity="0.25"/><circle cx="1279.8" cy="589.8" r="3.4" fill="#e7b348" opacity="0.21"/><circle cx="129.4" cy="732.2" r="2.9" fill="#e7b348" opacity="0.50"/><circle cx="829.0" cy="506.1" r="2.2" fill="#e7b348" opacity="0.78"/><circle cx="843.8" cy="814.9" r="1.5" fill="#e7b348" opacity="0.71"/><circle cx="120.2" cy="424.8" r="1.0" fill="#e7b348" opacity="0.38"/><circle cx="1280.0" cy="894.6" r="0.8" fill="#e7b348" opacity="0.18"/><circle cx="120.9" cy="347.2" r="1.0" fill="#e7b348" opacity="0.34"/><circle cx="842.7" cy="969.8" r="1.5" fill="#e7b348" opacity="0.68"/><circle cx="830.0" cy="274.7" r="2.2" fill="#e7b348" opacity="0.79"/><circle cx="128.8" cy="1039.2" r="3.0" fill="#e7b348" opacity="0.55"/><circle cx="1279.8" cy="208.6" r="3.4" fill="#e7b348" opacity="0.24"/><circle cx="112.6" cy="1101.7" r="3.6" fill="#e7b348" opacity="0.22"/><circle cx="856.4" cy="150.1" r="3.4" fill="#e7b348" opacity="0.53"/><circle cx="816.2" cy="1156.1" r="2.8" fill="#e7b348" opacity="0.79"/><circle cx="137.6" cy="100.1" r="2.1" fill="#e7b348" opacity="0.70"/><circle cx="1279.4" cy="1201.5" r="1.4" fill="#e7b348" opacity="0.36"/><circle cx="104.5" cy="59.5" r="0.9" fill="#e7b348" opacity="0.18"/><circle cx="869.9" cy="1237.1" r="0.8" fill="#e7b348" opacity="0.36"/><circle cx="802.3" cy="29.0" r="1.1" fill="#e7b348" opacity="0.70"/><circle cx="146.6" cy="1262.2" r="1.7" fill="#e7b348" opacity="0.79"/><circle cx="1278.6" cy="9.2" r="2.4" fill="#e7b348" opacity="0.52"/><circle cx="96.8" cy="1276.5" r="3.1" fill="#e7b348" opacity="0.22"/><circle cx="883.3" cy="0.5" r="3.5" fill="#e7b348" opacity="0.24"/><circle cx="788.3" cy="1279.7" r="3.6" fill="#e7b348" opacity="0.55"/><circle cx="155.9" cy="2.8" r="3.3" fill="#e7b348" opacity="0.79"/><circle cx="1277.5" cy="1271.8" r="2.6" fill="#e7b348" opacity="0.68"/><circle cx="89.3" cy="16.4" r="1.9" fill="#e7b348" opacity="0.34"/><circle cx="896.5" cy="1252.8" r="1.2" fill="#e7b348" opacity="0.18"/><circle cx="774.3" cy="40.8" r="0.9" fill="#e7b348" opacity="0.39"/><circle cx="165.5" cy="1223.1" r="0.8" fill="#e7b348" opacity="0.71"/><circle cx="1276.0" cy="75.6" r="1.2" fill="#e7b348" opacity="0.78"/><circle cx="82.1" cy="1183.2" r="1.8" fill="#e7b348" opacity="0.50"/><circle cx="909.7" cy="120.3" r="2.6" fill="#e7b348" opacity="0.21"/><circle cx="760.1" cy="1133.9" r="3.2" fill="#e7b348" opacity="0.25"/><circle cx="175.3" cy="174.1" r="3.6" fill="#e7b348" opacity="0.57"/><circle cx="1274.2" cy="1075.9" r="3.5" fill="#e7b348" opacity="0.80"/><circle cx="75.2" cy="236.0" r="3.1" fill="#e7b348" opacity="0.66"/><circle cx="922.7" cy="1010.3" r="2.5" fill="#e7b348" opacity="0.32"/><circle cx="745.9" cy="305.0" r="1.7" fill="#e7b348" opacity="0.18"/><circle cx="185.3" cy="938.2" r="1.1" fill="#e7b348" opacity="0.41"/><circle cx="1272.1" cy="379.8" r="0.8" fill="#e7b348" opacity="0.73"/><circle cx="68.5" cy="861.0" r="0.9" fill="#e7b348" opacity="0.77"/><circle cx="935.6" cy="459.2" r="1.3" fill="#e7b348" opacity="0.48"/><circle cx="731.7" cy="779.9" r="2.0" fill="#e7b348" opacity="0.20"/><circle cx="195.6" cy="541.7" r="2.7" fill="#e7b348" opacity="0.27"/><circle cx="1269.7" cy="696.3" r="3.3" fill="#e7b348" opacity="0.60"/><circle cx="62.2" cy="625.9" r="3.6" fill="#e7b348" opacity="0.80"/><circle cx="948.3" cy="611.8" r="3.5" fill="#e7b348" opacity="0.64"/><circle cx="717.4" cy="710.4" r="3.0" fill="#e7b348" opacity="0.30"/><circle cx="206.1" cy="527.7" r="2.3" fill="#e7b348" opacity="0.19"/><circle cx="1267.0" cy="793.6" r="1.6" fill="#e7b348" opacity="0.43"/><circle cx="56.1" cy="445.7" r="1.0" fill="#e7b348" opacity="0.75"/><circle cx="960.8" cy="874.2" r="0.8" fill="#e7b348" opacity="0.75"/><circle cx="703.1" cy="367.0" r="1.0" fill="#e7b348" opacity="0.45"/><circle cx="216.8" cy="950.7" r="1.5" fill="#e7b348" opacity="0.19"/><circle cx="1263.9" cy="293.0" r="2.2" fill="#e7b348" opacity="0.29"/><circle cx="50.4" cy="1021.7" r="2.9" fill="#e7b348" opacity="0.62"/><circle cx="973.2" cy="225.2" r="3.4" fill="#e7b348" opacity="0.80"/><circle cx="688.7" cy="1086.1" r="3.6" fill="#e7b348" opacity="0.61"/><circle cx="227.7" cy="164.5" r="3.4" fill="#e7b348" opacity="0.28"/><circle cx="1260.6" cy="1142.7" r="2.9" fill="#e7b348" opacity="0.20"/><circle cx="44.9" cy="112.2" r="2.1" fill="#e7b348" opacity="0.46"/><circle cx="985.4" cy="1190.6" r="1.4" fill="#e7b348" opacity="0.76"/><circle cx="674.3" cy="69.1" r="0.9" fill="#e7b348" opacity="0.74"/><circle cx="238.8" cy="1228.8" r="0.8" fill="#e7b348" opacity="0.43"/><circle cx="1256.9" cy="35.9" r="1.0" fill="#e7b348" opacity="0.19"/><circle cx="39.8" cy="1256.7" r="1.6" fill="#e7b348" opacity="0.31"/><circle cx="997.5" cy="13.3" r="2.3" fill="#e7b348" opacity="0.64"/><circle cx="659.9" cy="1273.9" r="3.0" fill="#e7b348" opacity="0.80"/><circle cx="250.2" cy="1.7" r="3.5" fill="#e7b348" opacity="0.59"/><circle cx="1252.9" cy="1280.0" r="3.6" fill="#e7b348" opacity="0.26"/><circle cx="34.9" cy="1.1" r="3.3" fill="#e7b348" opacity="0.20"/><circle cx="1009.4" cy="1274.9" r="2.7" fill="#e7b348" opacity="0.48"/><circle cx="645.5" cy="11.8" r="2.0" fill="#e7b348" opacity="0.77"/><circle cx="261.7" cy="1258.8" r="1.3" fill="#e7b348" opacity="0.73"/><circle cx="1248.6" cy="33.4" r="0.9" fill="#e7b348" opacity="0.40"/><circle cx="30.4" cy="1231.8" r="0.8" fill="#e7b348" opacity="0.18"/><circle cx="1021.0" cy="65.6" r="1.2" fill="#e7b348" opacity="0.33"/><circle cx="631.1" cy="1194.5" r="1.8" fill="#e7b348" opacity="0.66"/><circle cx="273.4" cy="107.8" r="2.5" fill="#e7b348" opacity="0.80"/><circle cx="1244.0" cy="1147.6" r="3.2" fill="#e7b348" opacity="0.57"/><circle cx="26.1" cy="159.3" r="3.5" fill="#e7b348" opacity="0.25"/><circle cx="1032.5" cy="1091.7" r="3.6" fill="#e7b348" opacity="0.21"/><circle cx="616.7" cy="219.2" r="3.2" fill="#e7b348" opacity="0.51"/><circle cx="285.3" cy="1028.0" r="2.6" fill="#e7b348" opacity="0.78"/><circle cx="1239.1" cy="286.4" r="1.8" fill="#e7b348" opacity="0.71"/><circle cx="22.2" cy="957.6" r="1.2" fill="#e7b348" opacity="0.38"/><circle cx="1043.8" cy="359.8" r="0.8" fill="#e7b348" opacity="0.18"/><circle cx="602.3" cy="881.5" r="0.9" fill="#e7b348" opacity="0.35"/><circle cx="297.4" cy="438.2" r="1.3" fill="#e7b348" opacity="0.68"/><circle cx="1233.8" cy="801.3" r="1.9" fill="#e7b348" opacity="0.79"/><circle cx="18.6" cy="520.0" r="2.7" fill="#e7b348" opacity="0.54"/><circle cx="1054.9" cy="718.2" r="3.3" fill="#e7b348" opacity="0.23"/><circle cx="587.9" cy="603.9" r="3.6" fill="#e7b348" opacity="0.23"/><circle cx="309.7" cy="633.8" r="3.5" fill="#e7b348" opacity="0.53"/><circle cx="1228.3" cy="688.5" r="3.1" fill="#e7b348" opacity="0.79"/><circle cx="15.3" cy="549.5" r="2.4" fill="#e7b348" opacity="0.69"/><circle cx="1065.8" cy="772.2" r="1.7" fill="#e7b348" opacity="0.36"/><circle cx="573.5" cy="466.7" r="1.1" fill="#e7b348" opacity="0.18"/><circle cx="322.1" cy="853.6" r="0.8" fill="#e7b348" opacity="0.37"/><circle cx="1222.5" cy="387.0" r="0.9" fill="#e7b348" opacity="0.70"/><circle cx="12.3" cy="931.3" r="1.4" fill="#e7b348" opacity="0.78"/><circle cx="1076.4" cy="311.7" r="2.1" fill="#e7b348" opacity="0.52"/><circle cx="559.2" cy="1003.8" r="2.8" fill="#e7b348" opacity="0.22"/><circle cx="334.7" cy="242.2" r="3.4" fill="#e7b348" opacity="0.24"/><circle cx="1216.4" cy="1070.1" r="3.6" fill="#e7b348" opacity="0.56"/><circle cx="9.7" cy="179.6" r="3.4" fill="#e7b348" opacity="0.79"/><circle cx="1086.9" cy="1128.8" r="2.9" fill="#e7b348" opacity="0.67"/><circle cx="544.9" cy="125.0" r="2.2" fill="#e7b348" opacity="0.34"/><circle cx="347.5" cy="1179.0" r="1.5" fill="#e7b348" opacity="0.18"/><circle cx="1210.0" cy="79.4" r="1.0" fill="#e7b348" opacity="0.39"/><circle cx="7.3" cy="1219.8" r="0.8" fill="#e7b348" opacity="0.72"/><circle cx="1097.1" cy="43.6" r="1.0" fill="#e7b348" opacity="0.77"/><circle cx="530.7" cy="1250.5" r="1.5" fill="#e7b348" opacity="0.49"/><circle cx="360.3" cy="18.2" r="2.3" fill="#e7b348" opacity="0.21"/><circle cx="1203.2" cy="1270.5" r="3.0" fill="#e7b348" opacity="0.26"/><circle cx="5.3" cy="3.6" r="3.5" fill="#e7b348" opacity="0.58"/><circle cx="1107.0" cy="1279.5" r="3.6" fill="#e7b348" opacity="0.80"/><circle cx="516.5" cy="0.2" r="3.3" fill="#e7b348" opacity="0.65"/><circle cx="373.4" cy="1277.3" r="2.8" fill="#e7b348" opacity="0.32"/><circle cx="1196.3" cy="7.9" r="2.0" fill="#e7b348" opacity="0.18"/><circle cx="3.6" cy="1264.0" r="1.4" fill="#e7b348" opacity="0.42"/><circle cx="1116.8" cy="26.7" r="0.9" fill="#e7b348" opacity="0.73"/><circle cx="502.4" cy="1239.9" r="0.8" fill="#e7b348" opacity="0.76"/><circle cx="386.6" cy="56.2" r="1.1" fill="#e7b348" opacity="0.47"/><circle cx="1189.0" cy="1205.2" r="1.7" fill="#e7b348" opacity="0.20"/><circle cx="2.3" cy="95.9" r="2.4" fill="#e7b348" opacity="0.27"/><circle cx="1126.3" cy="1160.7" r="3.1" fill="#e7b348" opacity="0.60"/><circle cx="488.4" cy="145.0" r="3.5" fill="#e7b348" opacity="0.80"/><circle cx="399.9" cy="1107.1" r="3.6" fill="#e7b348" opacity="0.63"/><circle cx="1181.4" cy="202.8" r="3.2" fill="#e7b348" opacity="0.30"/><circle cx="1.2" cy="1045.3" r="2.6" fill="#e7b348" opacity="0.19"/><circle cx="1135.5" cy="268.3" r="1.9" fill="#e7b348" opacity="0.44"/><circle cx="474.4" cy="976.5" r="1.2" fill="#e7b348" opacity="0.75"/><circle cx="413.3" cy="340.2" r="0.9" fill="#e7b348" opacity="0.75"/><circle cx="1173.6" cy="901.8" r="0.8" fill="#e7b348" opacity="0.45"/><circle cx="0.5" cy="417.4" r="1.2" fill="#e7b348" opacity="0.19"/><circle cx="1144.5" cy="822.5" r="1.9" fill="#e7b348" opacity="0.29"/><circle cx="460.5" cy="498.4" r="2.6" fill="#e7b348" opacity="0.62"/><circle cx="426.8" cy="740.0" r="3.2" fill="#e7b348" opacity="0.80"/><circle cx="1165.5" cy="581.9" r="3.6" fill="#e7b348" opacity="0.61"/><circle cx="0.1" cy="655.8" r="3.5" fill="#e7b348" opacity="0.28"/><circle cx="1153.3" cy="666.5" r="3.1" fill="#e7b348" opacity="0.20"/><circle cx="446.7" cy="571.3" r="2.5" fill="#e7b348" opacity="0.46"/><circle cx="440.5" cy="750.6" r="1.7" fill="#e7b348" opacity="0.76"/><circle cx="1157.2" cy="488.0" r="1.1" fill="#e7b348" opacity="0.74"/><circle cx="0.0" cy="832.7" r="0.8" fill="#e7b348" opacity="0.42"/><circle cx="1161.7" cy="407.4" r="0.9" fill="#e7b348" opacity="0.19"/><circle cx="433.0" cy="911.5" r="1.3" fill="#e7b348" opacity="0.31"/><circle cx="454.2" cy="330.8" r="2.0" fill="#e7b348" opacity="0.65"/><circle cx="1148.5" cy="985.5" r="2.8" fill="#e7b348" opacity="0.80"/><circle cx="0.3" cy="259.7" r="3.3" fill="#e7b348" opacity="0.59"/><circle cx="1170.0" cy="1053.5" r="3.6" fill="#e7b348" opacity="0.26"/><circle cx="419.5" cy="195.1" r="3.5" fill="#e7b348" opacity="0.21"/><circle cx="468.1" cy="1114.3" r="3.0" fill="#e7b348" opacity="0.49"/><circle cx="1139.7" cy="138.3" r="2.3" fill="#e7b348" opacity="0.77"/><circle cx="0.8" cy="1166.8" r="1.6" fill="#e7b348" opacity="0.72"/><circle cx="1177.9" cy="90.3" r="1.0" fill="#e7b348" opacity="0.40"/><circle cx="406.0" cy="1210.1" r="0.8" fill="#e7b348" opacity="0.18"/><circle cx="482.0" cy="51.9" r="1.0" fill="#e7b348" opacity="0.33"/><circle cx="1130.5" cy="1243.5" r="1.5" fill="#e7b348" opacity="0.67"/><circle cx="1.7" cy="23.8" r="2.2" fill="#e7b348" opacity="0.79"/><circle cx="1185.6" cy="1266.3" r="2.9" fill="#e7b348" opacity="0.56"/><circle cx="392.6" cy="6.4" r="3.4" fill="#e7b348" opacity="0.24"/><circle cx="496.0" cy="1278.2" r="3.6" fill="#e7b348" opacity="0.22"/><circle cx="1121.1" cy="0.0" r="3.4" fill="#e7b348" opacity="0.51"/><circle cx="3.0" cy="1279.0" r="2.8" fill="#e7b348" opacity="0.78"/><circle cx="1193.0" cy="4.9" r="2.1" fill="#e7b348" opacity="0.71"/><circle cx="379.4" cy="1268.5" r="1.4" fill="#e7b348" opacity="0.38"/><circle cx="510.1" cy="20.8" r="0.9" fill="#e7b348" opacity="0.18"/><circle cx="1111.5" cy="1247.2" r="0.8" fill="#e7b348" opacity="0.35"/><circle cx="4.5" cy="47.5" r="1.1" fill="#e7b348" opacity="0.69"/><circle cx="1200.1" cy="1215.2" r="1.6" fill="#e7b348" opacity="0.79"/><circle cx="366.3" cy="84.6" r="2.4" fill="#e7b348" opacity="0.54"/><circle cx="524.2" cy="1173.2" r="3.0" fill="#e7b348" opacity="0.23"/><circle cx="1101.6" cy="131.4" r="3.5" fill="#e7b348" opacity="0.23"/><circle cx="6.4" cy="1121.9" r="3.6" fill="#e7b348" opacity="0.54"/><circle cx="1206.9" cy="187.0" r="3.3" fill="#e7b348" opacity="0.79"/><circle cx="353.3" cy="1062.1" r="2.7" fill="#e7b348" opacity="0.69"/><circle cx="538.4" cy="250.6" r="2.0" fill="#e7b348" opacity="0.35"/><circle cx="1091.5" cy="995.0" r="1.3" fill="#e7b348" opacity="0.18"/><circle cx="8.6" cy="320.9" r="0.9" fill="#e7b348" opacity="0.37"/><circle cx="1213.5" cy="921.7" r="0.8" fill="#e7b348" opacity="0.70"/><circle cx="340.5" cy="396.9" r="1.2" fill="#e7b348" opacity="0.78"/><circle cx="552.7" cy="843.5" r="1.8" fill="#e7b348" opacity="0.51"/><circle cx="1081.2" cy="477.0" r="2.5" fill="#e7b348" opacity="0.22"/><circle cx="11.1" cy="761.7" r="3.2" fill="#e7b348" opacity="0.24"/><circle cx="1219.7" cy="560.1" r="3.6" fill="#e7b348" opacity="0.56"/><circle cx="327.8" cy="677.8" r="3.6" fill="#e7b348" opacity="0.79"/><circle cx="567.0" cy="644.5" r="3.2" fill="#e7b348" opacity="0.67"/><circle cx="1070.7" cy="593.3" r="2.5" fill="#e7b348" opacity="0.33"/><circle cx="13.9" cy="728.8" r="1.8" fill="#e7b348" opacity="0.18"/><circle cx="1225.7" cy="509.5" r="1.2" fill="#e7b348" opacity="0.40"/><circle cx="315.3" cy="811.6" r="0.8" fill="#e7b348" opacity="0.72"/><circle cx="581.3" cy="428.1" r="0.9" fill="#e7b348" opacity="0.77"/><circle cx="1059.9" cy="891.4" r="1.3" fill="#e7b348" opacity="0.49"/><circle cx="17.1" cy="350.3" r="2.0" fill="#e7b348" opacity="0.21"/><circle cx="1231.4" cy="966.8" r="2.7" fill="#e7b348" opacity="0.26"/><circle cx="303.0" cy="277.6" r="3.3" fill="#e7b348" opacity="0.58"/><circle cx="595.7" cy="1036.5" r="3.6" fill="#e7b348" opacity="0.80"/><circle cx="1048.9" cy="211.2" r="3.5" fill="#e7b348" opacity="0.65"/><circle cx="20.5" cy="1099.2" r="3.0" fill="#e7b348" opacity="0.31"/><circle cx="1236.7" cy="152.3" r="2.4" fill="#e7b348" opacity="0.19"/><circle cx="290.8" cy="1154.0" r="1.6" fill="#e7b348" opacity="0.42"/><circle cx="610.1" cy="101.9" r="1.1" fill="#e7b348" opacity="0.74"/><circle cx="1037.7" cy="1199.8" r="0.8" fill="#e7b348" opacity="0.76"/><circle cx="24.3" cy="60.9" r="0.9" fill="#e7b348" opacity="0.47"/><circle cx="1241.8" cy="1235.8" r="1.4" fill="#e7b348" opacity="0.20"/><circle cx="278.8" cy="30.1" r="2.1" fill="#e7b348" opacity="0.28"/><circle cx="624.5" cy="1261.4" r="2.8" fill="#e7b348" opacity="0.61"/><circle cx="1026.3" cy="9.8" r="3.4" fill="#e7b348" opacity="0.80"/><circle cx="28.4" cy="1276.2" r="3.6" fill="#e7b348" opacity="0.63"/><circle cx="1246.5" cy="0.6" r="3.4" fill="#e7b348" opacity="0.29"/><circle cx="267.0" cy="1279.8" r="2.9" fill="#e7b348" opacity="0.19"/><circle cx="638.9" cy="2.5" r="2.2" fill="#e7b348" opacity="0.44"/><circle cx="1014.7" cy="1272.3" r="1.5" fill="#e7b348" opacity="0.75"/><circle cx="32.8" cy="15.6" r="1.0" fill="#e7b348" opacity="0.75"/><circle cx="1251.0" cy="1253.8" r="0.8" fill="#e7b348" opacity="0.44"/><circle cx="255.4" cy="39.5" r="1.0" fill="#e7b348" opacity="0.19"/><circle cx="653.4" cy="1224.5" r="1.6" fill="#e7b348" opacity="0.29"/><circle cx="1002.9" cy="74.0" r="2.3" fill="#e7b348" opacity="0.63"/><circle cx="37.5" cy="1185.0" r="3.0" fill="#e7b348" opacity="0.80"/><circle cx="1255.1" cy="118.3" r="3.5" fill="#e7b348" opacity="0.60"/><circle cx="244.0" cy="1136.1" r="3.6" fill="#e7b348" opacity="0.27"/><circle cx="667.8" cy="171.7" r="3.3" fill="#e7b348" opacity="0.20"/><circle cx="991.0" cy="1078.4" r="2.8" fill="#e7b348" opacity="0.47"/><circle cx="42.5" cy="233.3" r="2.0" fill="#e7b348" opacity="0.76"/><circle cx="1258.9" cy="1013.1" r="1.3" fill="#e7b348" opacity="0.74"/><circle cx="232.7" cy="302.0" r="0.9" fill="#e7b348" opacity="0.42"/><circle cx="682.2" cy="941.3" r="0.8" fill="#e7b348" opacity="0.19"/><circle cx="978.8" cy="376.6" r="1.1" fill="#e7b348" opacity="0.31"/><circle cx="47.8" cy="864.3" r="1.7" fill="#e7b348" opacity="0.65"/><circle cx="1262.5" cy="455.8" r="2.5" fill="#e7b348" opacity="0.80"/><circle cx="221.7" cy="783.3" r="3.1" fill="#e7b348" opacity="0.58"/><circle cx="696.5" cy="538.3" r="3.5" fill="#e7b348" opacity="0.26"/><circle cx="966.5" cy="699.8" r="3.6" fill="#e7b348" opacity="0.21"/><circle cx="53.5" cy="622.4" r="3.2" fill="#e7b348" opacity="0.49"/><circle cx="1265.6" cy="615.3" r="2.6" fill="#e7b348" opacity="0.77"/><circle cx="210.9" cy="706.9" r="1.9" fill="#e7b348" opacity="0.72"/><circle cx="710.9" cy="531.2" r="1.2" fill="#e7b348" opacity="0.39"/><circle cx="954.0" cy="790.3" r="0.8" fill="#e7b348" opacity="0.18"/><circle cx="59.4" cy="449.0" r="0.9" fill="#e7b348" opacity="0.33"/><circle cx="1268.5" cy="871.0" r="1.2" fill="#e7b348" opacity="0.67"/><circle cx="200.3" cy="370.1" r="1.9" fill="#e7b348" opacity="0.79"/><circle cx="725.2" cy="947.6" r="2.6" fill="#e7b348" opacity="0.56"/><circle cx="941.4" cy="296.0" r="3.2" fill="#e7b348" opacity="0.24"/><circle cx="65.6" cy="1018.9" r="3.6" fill="#e7b348" opacity="0.22"/><circle cx="1271.1" cy="227.8" r="3.5" fill="#e7b348" opacity="0.52"/><circle cx="190.0" cy="1083.6" r="3.1" fill="#e7b348" opacity="0.78"/><circle cx="739.5" cy="166.9" r="2.4" fill="#e7b348" opacity="0.70"/><circle cx="928.6" cy="1140.6" r="1.7" fill="#e7b348" opacity="0.37"/><circle cx="72.1" cy="114.2" r="1.1" fill="#e7b348" opacity="0.18"/><circle cx="1273.3" cy="1188.8" r="0.8" fill="#e7b348" opacity="0.36"/><circle cx="179.8" cy="70.7" r="0.9" fill="#e7b348" opacity="0.69"/><circle cx="753.7" cy="1227.4" r="1.4" fill="#e7b348" opacity="0.79"/><circle cx="915.6" cy="37.1" r="2.0" fill="#e7b348" opacity="0.53"/><circle cx="78.9" cy="1255.8" r="2.8" fill="#e7b348" opacity="0.23"/><circle cx="1275.2" cy="14.0" r="3.3" fill="#e7b348" opacity="0.23"/><circle cx="169.9" cy="1273.4" r="3.6" fill="#e7b348" opacity="0.54"/><circle cx="767.8" cy="1.9" r="3.5" fill="#e7b348" opacity="0.79"/><circle cx="902.6" cy="1280.0" r="3.0" fill="#e7b348" opacity="0.68"/><circle cx="86.0" cy="1.0" r="2.3" fill="#e7b348" opacity="0.35"/><circle cx="1276.8" cy="1275.3" r="1.5" fill="#e7b348" opacity="0.18"/><circle cx="160.3" cy="11.1" r="1.0" fill="#e7b348" opacity="0.38"/><circle cx="781.9" cy="1259.7" r="0.8" fill="#e7b348" opacity="0.71"/><circle cx="889.3" cy="32.3" r="1.0" fill="#e7b348" opacity="0.78"/><circle cx="93.3" cy="1233.1" r="1.5" fill="#e7b348" opacity="0.51"/><circle cx="1278.1" cy="64.0" r="2.2" fill="#e7b348" opacity="0.22"/><circle cx="150.8" cy="1196.3" r="2.9" fill="#e7b348" opacity="0.25"/><circle cx="795.9" cy="105.9" r="3.4" fill="#e7b348" opacity="0.57"/><circle cx="876.0" cy="1149.7" r="3.6" fill="#e7b348" opacity="0.80"/><circle cx="100.9" cy="157.0" r="3.4" fill="#e7b348" opacity="0.66"/><circle cx="1279.0" cy="1094.2" r="2.8" fill="#e7b348" opacity="0.33"/><circle cx="141.7" cy="216.6" r="2.1" fill="#e7b348" opacity="0.18"/><circle cx="809.9" cy="1030.8" r="1.4" fill="#e7b348" opacity="0.40"/><circle cx="862.5" cy="283.5" r="0.9" fill="#e7b348" opacity="0.72"/><circle cx="108.9" cy="960.6" r="0.8" fill="#e7b348" opacity="0.77"/><circle cx="1279.7" cy="356.7" r="1.1" fill="#e7b348" opacity="0.49"/><circle cx="132.8" cy="884.7" r="1.7" fill="#e7b348" opacity="0.21"/><circle cx="823.7" cy="434.9" r="2.4" fill="#e7b348" opacity="0.26"/><circle cx="849.0" cy="804.6" r="3.1" fill="#e7b348" opacity="0.59"/><circle cx="117.0" cy="516.6" r="3.5" fill="#e7b348" opacity="0.80"/><circle cx="1280.0" cy="721.7" r="3.6" fill="#e7b348" opacity="0.64"/><circle cx="124.1" cy="600.4" r="3.3" fill="#e7b348" opacity="0.31"/><circle cx="837.5" cy="637.3" r="2.7" fill="#e7b348" opacity="0.19"/><circle cx="835.3" cy="685.0" r="1.9" fill="#e7b348" opacity="0.42"/><circle cx="125.5" cy="552.9" r="1.3" fill="#e7b348" opacity="0.74"/><circle cx="1279.9" cy="768.8" r="0.9" fill="#e7b348" opacity="0.76"/><circle cx="115.7" cy="470.1" r="0.8" fill="#e7b348" opacity="0.46"/><circle cx="851.2" cy="850.3" r="1.2" fill="#e7b348" opacity="0.20"/><circle cx="821.5" cy="390.2" r="1.8" fill="#e7b348" opacity="0.28"/><circle cx="134.2" cy="928.2" r="2.6" fill="#e7b348" opacity="0.61"/><circle cx="1279.6" cy="314.7" r="3.2" fill="#e7b348" opacity="0.80"/><circle cx="107.6" cy="1001.0" r="3.6" fill="#e7b348" opacity="0.62"/><circle cx="864.7" cy="244.9" r="3.5" fill="#e7b348" opacity="0.29"/><circle cx="807.6" cy="1067.5" r="3.2" fill="#e7b348" opacity="0.19"/><circle cx="143.1" cy="182.0" r="2.5" fill="#e7b348" opacity="0.45"/><circle cx="1278.9" cy="1126.6" r="1.8" fill="#e7b348" opacity="0.75"/><circle cx="99.7" cy="127.0" r="1.2" fill="#e7b348" opacity="0.75"/><circle cx="878.2" cy="1177.1" r="0.8" fill="#e7b348" opacity="0.44"/><circle cx="793.7" cy="81.1" r="0.9" fill="#e7b348" opacity="0.19"/><circle cx="152.4" cy="1218.3" r="1.3" fill="#e7b348" opacity="0.30"/><circle cx="1277.9" cy="44.8" r="2.0" fill="#e7b348" opacity="0.63"/><circle cx="92.1" cy="1249.4" r="2.7" fill="#e7b348" opacity="0.80"/><circle cx="891.5" cy="19.0" r="3.3" fill="#e7b348" opacity="0.60"/><circle cx="779.7" cy="1269.9" r="3.6" fill="#e7b348" opacity="0.27"/><circle cx="161.8" cy="4.0" r="3.5" fill="#e7b348" opacity="0.20"/><circle cx="1276.6" cy="1279.3" r="3.0" fill="#e7b348" opacity="0.47"/><circle cx="84.8" cy="0.1" r="2.3" fill="#e7b348" opacity="0.77"/><circle cx="904.7" cy="1277.6" r="1.6" fill="#e7b348" opacity="0.73"/><circle cx="765.6" cy="7.4" r="1.0" fill="#e7b348" opacity="0.41"/><circle cx="171.5" cy="1264.8" r="0.8" fill="#e7b348" opacity="0.18"/><circle cx="1274.9" cy="25.7" r="0.9" fill="#e7b348" opacity="0.32"/><circle cx="77.8" cy="1241.1" r="1.4" fill="#e7b348" opacity="0.65"/><circle cx="917.7" cy="54.8" r="2.1" fill="#e7b348" opacity="0.80"/><circle cx="751.4" cy="1206.8" r="2.9" fill="#e7b348" opacity="0.58"/><circle cx="181.5" cy="94.0" r="3.4" fill="#e7b348" opacity="0.25"/><circle cx="1273.0" cy="1162.7" r="3.6" fill="#e7b348" opacity="0.21"/><circle cx="71.0" cy="142.8" r="3.4" fill="#e7b348" opacity="0.50"/><circle cx="930.7" cy="1109.4" r="2.9" fill="#e7b348" opacity="0.78"/><circle cx="737.2" cy="200.3" r="2.2" fill="#e7b348" opacity="0.72"/><circle cx="191.6" cy="1048.0" r="1.5" fill="#e7b348" opacity="0.39"/><circle cx="1270.7" cy="265.5" r="1.0" fill="#e7b348" opacity="0.18"/><circle cx="64.6" cy="979.4" r="0.8" fill="#e7b348" opacity="0.34"/><circle cx="943.4" cy="337.1" r="1.0" fill="#e7b348" opacity="0.67"/><circle cx="722.9" cy="904.9" r="1.6" fill="#e7b348" opacity="0.79"/><circle cx="202.0" cy="414.1" r="2.3" fill="#e7b348" opacity="0.55"/><circle cx="1268.1" cy="825.8" r="3.0" fill="#e7b348" opacity="0.24"/><circle cx="58.4" cy="495.0" r="3.5" fill="#e7b348" opacity="0.22"/><circle cx="956.0" cy="743.5" r="3.6" fill="#e7b348" opacity="0.52"/><circle cx="708.6" cy="578.5" r="3.3" fill="#e7b348" opacity="0.78"/><circle cx="212.7" cy="659.3" r="2.7" fill="#e7b348" opacity="0.70"/><circle cx="1265.2" cy="663.0" r="2.0" fill="#e7b348" opacity="0.37"/><circle cx="52.5" cy="574.8" r="1.3" fill="#e7b348" opacity="0.18"/><circle cx="968.5" cy="747.1" r="0.9" fill="#e7b348" opacity="0.36"/><circle cx="694.2" cy="491.4" r="0.8" fill="#e7b348" opacity="0.69"/><circle cx="223.5" cy="829.4" r="1.1" fill="#e7b348" opacity="0.79"/><circle cx="1261.9" cy="410.7" r="1.7" fill="#e7b348" opacity="0.53"/><circle cx="47.0" cy="908.3" r="2.5" fill="#e7b348" opacity="0.23"/><circle cx="980.8" cy="333.9" r="3.1" fill="#e7b348" opacity="0.23"/><circle cx="679.8" cy="982.6" r="3.5" fill="#e7b348" opacity="0.55"/><circle cx="234.5" cy="262.5" r="3.6" fill="#e7b348" opacity="0.79"/><circle cx="1258.3" cy="1050.9" r="3.2" fill="#e7b348" opacity="0.68"/><circle cx="41.7" cy="197.6" r="2.6" fill="#e7b348" opacity="0.34"/><circle cx="992.9" cy="1112.0" r="1.8" fill="#e7b348" opacity="0.18"/><circle cx="665.4" cy="140.5" r="1.2" fill="#e7b348" opacity="0.38"/><circle cx="245.8" cy="1164.8" r="0.8" fill="#e7b348" opacity="0.71"/><circle cx="1254.5" cy="92.1" r="0.9" fill="#e7b348" opacity="0.78"/><circle cx="36.7" cy="1208.5" r="1.2" fill="#e7b348" opacity="0.50"/><circle cx="1004.8" cy="53.3" r="1.9" fill="#e7b348" opacity="0.21"/><circle cx="651.0" cy="1242.3" r="2.6" fill="#e7b348" opacity="0.25"/><circle cx="257.3" cy="24.7" r="3.3" fill="#e7b348" opacity="0.57"/><circle cx="1250.3" cy="1265.6" r="3.6" fill="#e7b348" opacity="0.80"/><circle cx="32.1" cy="6.9" r="3.5" fill="#e7b348" opacity="0.66"/><circle cx="1016.6" cy="1277.9" r="3.1" fill="#e7b348" opacity="0.32"/><circle cx="636.6" cy="0.1" r="2.4" fill="#e7b348" opacity="0.18"/><circle cx="268.9" cy="1279.1" r="1.7" fill="#e7b348" opacity="0.41"/><circle cx="1245.8" cy="4.4" r="1.1" fill="#e7b348" opacity="0.73"/><circle cx="27.7" cy="1269.2" r="0.8" fill="#e7b348" opacity="0.77"/><circle cx="1028.2" cy="19.9" r="0.9" fill="#e7b348" opacity="0.48"/><circle cx="622.2" cy="1248.3" r="1.4" fill="#e7b348" opacity="0.20"/><circle cx="280.7" cy="46.2" r="2.1" fill="#e7b348" opacity="0.27"/><circle cx="1241.0" cy="1216.7" r="2.8" fill="#e7b348" opacity="0.59"/><circle cx="23.7" cy="82.9" r="3.4" fill="#e7b348" opacity="0.80"/><circle cx="1039.5" cy="1175.1" r="3.6" fill="#e7b348" opacity="0.64"/><circle cx="607.8" cy="129.3" r="3.4" fill="#e7b348" opacity="0.30"/><circle cx="292.8" cy="1124.1" r="3.0" fill="#e7b348" opacity="0.19"/><circle cx="1235.9" cy="184.6" r="2.2" fill="#e7b348" opacity="0.43"/><circle cx="19.9" cy="1064.7" r="1.5" fill="#e7b348" opacity="0.74"/><circle cx="1050.7" cy="247.8" r="1.0" fill="#e7b348" opacity="0.76"/><circle cx="593.4" cy="997.9" r="0.8" fill="#e7b348" opacity="0.46"/><circle cx="305.0" cy="317.9" r="1.0" fill="#e7b348" opacity="0.19"/><circle cx="1230.5" cy="924.8" r="1.5" fill="#e7b348" opacity="0.28"/><circle cx="16.5" cy="393.7" r="2.2" fill="#e7b348" opacity="0.62"/><circle cx="1061.6" cy="846.8" r="2.9" fill="#e7b348" opacity="0.80"/><circle cx="579.0" cy="473.7" r="3.4" fill="#e7b348" opacity="0.62"/><circle cx="317.3" cy="765.1" r="3.6" fill="#e7b348" opacity="0.28"/><circle cx="1224.7" cy="556.6" r="3.4" fill="#e7b348" opacity="0.19"/><circle cx="13.4" cy="681.3" r="2.8" fill="#e7b348" opacity="0.45"/><circle cx="1072.4" cy="641.0" r="2.1" fill="#e7b348" opacity="0.76"/><circle cx="564.7" cy="596.7" r="1.4" fill="#e7b348" opacity="0.74"/><circle cx="329.9" cy="725.4" r="0.9" fill="#e7b348" opacity="0.43"/><circle cx="1218.7" cy="512.9" r="0.8" fill="#e7b348" opacity="0.19"/><circle cx="10.7" cy="808.2" r="1.1" fill="#e7b348" opacity="0.30"/><circle cx="1082.9" cy="431.3" r="1.7" fill="#e7b348" opacity="0.64"/><circle cx="550.4" cy="888.2" r="2.4" fill="#e7b348" opacity="0.80"/><circle cx="342.6" cy="353.4" r="3.1" fill="#e7b348" opacity="0.60"/><circle cx="1212.4" cy="963.8" r="3.5" fill="#e7b348" opacity="0.27"/><circle cx="8.2" cy="280.5" r="3.6" fill="#e7b348" opacity="0.20"/><circle cx="1093.2" cy="1033.7" r="3.3" fill="#e7b348" opacity="0.48"/><circle cx="536.2" cy="213.8" r="2.6" fill="#e7b348" opacity="0.77"/><circle cx="355.4" cy="1096.8" r="1.9" fill="#e7b348" opacity="0.73"/><circle cx="1205.8" cy="154.6" r="1.3" fill="#e7b348" opacity="0.41"/><circle cx="6.1" cy="1151.9" r="0.9" fill="#e7b348" opacity="0.18"/><circle cx="1103.2" cy="103.8" r="0.8" fill="#e7b348" opacity="0.32"/><circle cx="522.0" cy="1198.1" r="1.2" fill="#e7b348" opacity="0.66"/><circle cx="368.4" cy="62.4" r="1.8" fill="#e7b348" opacity="0.80"/><circle cx="1199.0" cy="1234.5" r="2.6" fill="#e7b348" opacity="0.57"/><circle cx="4.2" cy="31.1" r="3.2" fill="#e7b348" opacity="0.25"/><circle cx="1113.1" cy="1260.6" r="3.6" fill="#e7b348" opacity="0.21"/><circle cx="507.8" cy="10.4" r="3.5" fill="#e7b348" opacity="0.50"/><circle cx="381.5" cy="1275.8" r="3.1" fill="#e7b348" opacity="0.78"/><circle cx="1191.8" cy="0.8" r="2.5" fill="#e7b348" opacity="0.71"/><circle cx="2.7" cy="1279.9" r="1.7" fill="#e7b348" opacity="0.38"/><circle cx="1122.7" cy="2.2" r="1.1" fill="#e7b348" opacity="0.18"/><circle cx="493.7" cy="1272.9" r="0.8" fill="#e7b348" opacity="0.34"/><circle cx="394.8" cy="14.8" r="0.9" fill="#e7b348" opacity="0.68"/><circle cx="1184.4" cy="1254.8" r="1.3" fill="#e7b348" opacity="0.79"/><circle cx="1.6" cy="38.4" r="2.0" fill="#e7b348" opacity="0.55"/><circle cx="1132.0" cy="1225.9" r="2.7" fill="#e7b348" opacity="0.24"/><circle cx="479.7" cy="72.4" r="3.3" fill="#e7b348" opacity="0.22"/><circle cx="408.1" cy="1186.9" r="3.6" fill="#e7b348" opacity="0.53"/><circle cx="1176.6" cy="116.3" r="3.5" fill="#e7b348" opacity="0.79"/><circle cx="0.7" cy="1138.3" r="3.0" fill="#e7b348" opacity="0.70"/><circle cx="1141.1" cy="169.4" r="2.3" fill="#e7b348" opacity="0.36"/><circle cx="465.8" cy="1080.9" r="1.6" fill="#e7b348" opacity="0.18"/></g>
      <circle cx="860" cy="500" r="340" fill="#d7a642" opacity=".08"/>
    
  <rect width="1280" height="1280" fill="url(#vignette)"/>
  <rect width="1280" height="1280" filter="url(#grain)" opacity=".75"/>
</svg>
