<?xml version="1.0" encoding="UTF-8"?>
<svg xmlns="http://www.w3.org/2000/svg" width="200" height="200" viewBox="0 0 1280 1280">
  <defs>
    <filter id="grain" x="-20%" y="-20%" width="140%" height="140%">
      <feTurbulence type="fractalNoise" baseFrequency=".72" numOctaves="3" seed="17"/>
      <feColorMatrix type="saturate" values="0"/>
      <feComponentTransfer><feFuncA type="table" tableValues="0 .18"/></feComponentTransfer>
    </filter>
    <filter id="rough" x="-15%" y="-15%" width="130%" height="130%">
      <feTurbulence type="fractalNoise" baseFrequency=".018" numOctaves="4" seed="8" result="n"/>
      <feDisplacementMap in="SourceGraphic" in2="n" scale="28" xChannelSelector="R" yChannelSelector="G"/>
    </filter>
    <radialGradient id="vignette" cx="50%" cy="48%" r="72%">
      <stop offset="58%" stop-color="#000" stop-opacity="0"/>
      <stop offset="100%" stop-color="#000" stop-opacity=".72"/>
    </radialGradient>
    
  </defs>
  <rect width="1280" height="1280" fill="#07080b"/>
  
      <linearGradient id="g13" x1="0" y1="0" x2="1" y2="1"><stop stop-color="#7de6e6"/><stop offset=".45" stop-color="#a08cff"/><stop offset=".8" stop-color="#ffe277"/><stop offset="1" stop-color="#092027"/></linearGradient>
      <rect width="1280" height="1280" fill="url(#g13)"/>
      <g transform="rotate(0 640 640)"><line x1="0" y1="-80" x2="0" y2="1360" stroke="#ffffff" stroke-width="4" opacity="0.24"/><line x1="47" y1="-80" x2="47" y2="1360" stroke="#ffffff" stroke-width="4" opacity="0.24"/><line x1="95" y1="-80" x2="95" y2="1360" stroke="#ffffff" stroke-width="4" opacity="0.24"/><line x1="142" y1="-80" x2="142" y2="1360" stroke="#ffffff" stroke-width="4" opacity="0.24"/><line x1="190" y1="-80" x2="190" y2="1360" stroke="#ffffff" stroke-width="4" opacity="0.24"/><line x1="237" y1="-80" x2="237" y2="1360" stroke="#ffffff" stroke-width="4" opacity="0.24"/><line x1="284" y1="-80" x2="284" y2="1360" stroke="#ffffff" stroke-width="4" opacity="0.24"/><line x1="332" y1="-80" x2="332" y2="1360" stroke="#ffffff" stroke-width="4" opacity="0.24"/><line x1="379" y1="-80" x2="379" y2="1360" stroke="#ffffff" stroke-width="4" opacity="0.24"/><line x1="427" y1="-80" x2="427" y2="1360" stroke="#ffffff" stroke-width="4" opacity="0.24"/><line x1="474" y1="-80" x2="474" y2="1360" stroke="#ffffff" stroke-width="4" opacity="0.24"/><line x1="521" y1="-80" x2="521" y2="1360" stroke="#ffffff" stroke-width="4" opacity="0.24"/><line x1="569" y1="-80" x2="569" y2="1360" stroke="#ffffff" stroke-width="4" opacity="0.24"/><line x1="616" y1="-80" x2="616" y2="1360" stroke="#ffffff" stroke-width="4" opacity="0.24"/><line x1="664" y1="-80" x2="664" y2="1360" stroke="#ffffff" stroke-width="4" opacity="0.24"/><line x1="711" y1="-80" x2="711" y2="1360" stroke="#ffffff" stroke-width="4" opacity="0.24"/><line x1="759" y1="-80" x2="759" y2="1360" stroke="#ffffff" stroke-width="4" opacity="0.24"/><line x1="806" y1="-80" x2="806" y2="1360" stroke="#ffffff" stroke-width="4" opacity="0.24"/><line x1="853" y1="-80" x2="853" y2="1360" stroke="#ffffff" stroke-width="4" opacity="0.24"/><line x1="901" y1="-80" x2="901" y2="1360" stroke="#ffffff" stroke-width="4" opacity="0.24"/><line x1="948" y1="-80" x2="948" y2="1360" stroke="#ffffff" stroke-width="4" opacity="0.24"/><line x1="996" y1="-80" x2="996" y2="1360" stroke="#ffffff" stroke-width="4" opacity="0.24"/><line x1="1043" y1="-80" x2="1043" y2="1360" stroke="#ffffff" stroke-width="4" opacity="0.24"/><line x1="1090" y1="-80" x2="1090" y2="1360" stroke="#ffffff" stroke-width="4" opacity="0.24"/><line x1="1138" y1="-80" x2="1138" y2="1360" stroke="#ffffff" stroke-width="4" opacity="0.24"/><line x1="1185" y1="-80" x2="1185" y2="1360" stroke="#ffffff" stroke-width="4" opacity="0.24"/><line x1="1233" y1="-80" x2="1233" y2="1360" stroke="#ffffff" stroke-width="4" opacity="0.24"/><line x1="1280" y1="-80" x2="1280" y2="1360" stroke="#ffffff" stroke-width="4" opacity="0.24"/></g>
      <g transform="rotate(90 640 640)"><line x1="0" y1="-80" x2="0" y2="1360" stroke="#223a53" stroke-width="3" opacity="0.22"/><line x1="56" y1="-80" x2="56" y2="1360" stroke="#223a53" stroke-width="3" opacity="0.22"/><line x1="111" y1="-80" x2="111" y2="1360" stroke="#223a53" stroke-width="3" opacity="0.22"/><line x1="167" y1="-80" x2="167" y2="1360" stroke="#223a53" stroke-width="3" opacity="0.22"/><line x1="223" y1="-80" x2="223" y2="1360" stroke="#223a53" stroke-width="3" opacity="0.22"/><line x1="278" y1="-80" x2="278" y2="1360" stroke="#223a53" stroke-width="3" opacity="0.22"/><line x1="334" y1="-80" x2="334" y2="1360" stroke="#223a53" stroke-width="3" opacity="0.22"/><line x1="390" y1="-80" x2="390" y2="1360" stroke="#223a53" stroke-width="3" opacity="0.22"/><line x1="445" y1="-80" x2="445" y2="1360" stroke="#223a53" stroke-width="3" opacity="0.22"/><line x1="501" y1="-80" x2="501" y2="1360" stroke="#223a53" stroke-width="3" opacity="0.22"/><line x1="557" y1="-80" x2="557" y2="1360" stroke="#223a53" stroke-width="3" opacity="0.22"/><line x1="612" y1="-80" x2="612" y2="1360" stroke="#223a53" stroke-width="3" opacity="0.22"/><line x1="668" y1="-80" x2="668" y2="1360" stroke="#223a53" stroke-width="3" opacity="0.22"/><line x1="723" y1="-80" x2="723" y2="1360" stroke="#223a53" stroke-width="3" opacity="0.22"/><line x1="779" y1="-80" x2="779" y2="1360" stroke="#223a53" stroke-width="3" opacity="0.22"/><line x1="835" y1="-80" x2="835" y2="1360" stroke="#223a53" stroke-width="3" opacity="0.22"/><line x1="890" y1="-80" x2="890" y2="1360" stroke="#223a53" stroke-width="3" opacity="0.22"/><line x1="946" y1="-80" x2="946" y2="1360" stroke="#223a53" stroke-width="3" opacity="0.22"/><line x1="1002" y1="-80" x2="1002" y2="1360" stroke="#223a53" stroke-width="3" opacity="0.22"/><line x1="1057" y1="-80" x2="1057" y2="1360" stroke="#223a53" stroke-width="3" opacity="0.22"/><line x1="1113" y1="-80" x2="1113" y2="1360" stroke="#223a53" stroke-width="3" opacity="0.22"/><line x1="1169" y1="-80" x2="1169" y2="1360" stroke="#223a53" stroke-width="3" opacity="0.22"/><line x1="1224" y1="-80" x2="1224" y2="1360" stroke="#223a53" stroke-width="3" opacity="0.22"/><line x1="1280" y1="-80" x2="1280" y2="1360" stroke="#223a53" stroke-width="3" opacity="0.22"/></g>
      <circle cx="80" cy="90" r="12" fill="none" stroke="#23334c" stroke-width="5" opacity=".28"/><circle cx="231" cy="187" r="17" fill="none" stroke="#23334c" stroke-width="5" opacity=".28"/><circle cx="382" cy="284" r="22" fill="none" stroke="#23334c" stroke-width="5" opacity=".28"/><circle cx="533" cy="381" r="27" fill="none" stroke="#23334c" stroke-width="5" opacity=".28"/><circle cx="684" cy="478" r="32" fill="none" stroke="#23334c" stroke-width="5" opacity=".28"/><circle cx="835" cy="575" r="12" fill="none" stroke="#23334c" stroke-width="5" opacity=".28"/><circle cx="986" cy="672" r="17" fill="none" stroke="#23334c" stroke-width="5" opacity=".28"/><circle cx="1137" cy="769" r="22" fill="none" stroke="#23334c" stroke-width="5" opacity=".28"/><circle cx="168" cy="866" r="27" fill="none" stroke="#23334c" stroke-width="5" opacity=".28"/><circle cx="319" cy="963" r="32" fill="none" stroke="#23334c" stroke-width="5" opacity=".28"/><circle cx="470" cy="1060" r="12" fill="none" stroke="#23334c" stroke-width="5" opacity=".28"/><circle cx="621" cy="1157" r="17" fill="none" stroke="#23334c" stroke-width="5" opacity=".28"/><circle cx="772" cy="174" r="22" fill="none" stroke="#23334c" stroke-width="5" opacity=".28"/><circle cx="923" cy="271" r="27" fill="none" stroke="#23334c" stroke-width="5" opacity=".28"/><circle cx="1074" cy="368" r="32" fill="none" stroke="#23334c" stroke-width="5" opacity=".28"/><circle cx="105" cy="465" r="12" fill="none" stroke="#23334c" stroke-width="5" opacity=".28"/><circle cx="256" cy="562" r="17" fill="none" stroke="#23334c" stroke-width="5" opacity=".28"/><circle cx="407" cy="659" r="22" fill="none" stroke="#23334c" stroke-width="5" opacity=".28"/><circle cx="558" cy="756" r="27" fill="none" stroke="#23334c" stroke-width="5" opacity=".28"/><circle cx="709" cy="853" r="32" fill="none" stroke="#23334c" stroke-width="5" opacity=".28"/><circle cx="860" cy="950" r="12" fill="none" stroke="#23334c" stroke-width="5" opacity=".28"/><circle cx="1011" cy="1047" r="17" fill="none" stroke="#23334c" stroke-width="5" opacity=".28"/><circle cx="1162" cy="1144" r="22" fill="none" stroke="#23334c" stroke-width="5" opacity=".28"/><circle cx="193" cy="161" r="27" fill="none" stroke="#23334c" stroke-width="5" opacity=".28"/><circle cx="344" cy="258" r="32" fill="none" stroke="#23334c" stroke-width="5" opacity=".28"/><circle cx="495" cy="355" r="12" fill="none" stroke="#23334c" stroke-width="5" opacity=".28"/><circle cx="646" cy="452" r="17" fill="none" stroke="#23334c" stroke-width="5" opacity=".28"/><circle cx="797" cy="549" r="22" fill="none" stroke="#23334c" stroke-width="5" opacity=".28"/><circle cx="948" cy="646" r="27" fill="none" stroke="#23334c" stroke-width="5" opacity=".28"/><circle cx="1099" cy="743" r="32" fill="none" stroke="#23334c" stroke-width="5" opacity=".28"/><circle cx="130" cy="840" r="12" fill="none" stroke="#23334c" stroke-width="5" opacity=".28"/><circle cx="281" cy="937" r="17" fill="none" stroke="#23334c" stroke-width="5" opacity=".28"/><circle cx="432" cy="1034" r="22" fill="none" stroke="#23334c" stroke-width="5" opacity=".28"/><circle cx="583" cy="1131" r="27" fill="none" stroke="#23334c" stroke-width="5" opacity=".28"/><circle cx="734" cy="148" r="32" fill="none" stroke="#23334c" stroke-width="5" opacity=".28"/><circle cx="885" cy="245" r="12" fill="none" stroke="#23334c" stroke-width="5" opacity=".28"/><circle cx="1036" cy="342" r="17" fill="none" stroke="#23334c" stroke-width="5" opacity=".28"/><circle cx="1187" cy="439" r="22" fill="none" stroke="#23334c" stroke-width="5" opacity=".28"/><circle cx="218" cy="536" r="27" fill="none" stroke="#23334c" stroke-width="5" opacity=".28"/><circle cx="369" cy="633" r="32" fill="none" stroke="#23334c" stroke-width="5" opacity=".28"/><circle cx="520" cy="730" r="12" fill="none" stroke="#23334c" stroke-width="5" opacity=".28"/><circle cx="671" cy="827" r="17" fill="none" stroke="#23334c" stroke-width="5" opacity=".28"/><circle cx="822" cy="924" r="22" fill="none" stroke="#23334c" stroke-width="5" opacity=".28"/><circle cx="973" cy="1021" r="27" fill="none" stroke="#23334c" stroke-width="5" opacity=".28"/>
      <path d="M80 980 L390 670 L390 450 L740 450 L970 220" stroke="#faffb7" stroke-width="15" fill="none" opacity=".58"/>
    
  <rect width="1280" height="1280" fill="url(#vignette)"/>
  <rect width="1280" height="1280" filter="url(#grain)" opacity=".75"/>
</svg>
