<?xml version="1.0" encoding="UTF-8"?>
<svg xmlns="http://www.w3.org/2000/svg" width="200" height="200" viewBox="0 0 1280 1280">
  <defs>
    <filter id="grain" x="-20%" y="-20%" width="140%" height="140%">
      <feTurbulence type="fractalNoise" baseFrequency=".72" numOctaves="3" seed="17"/>
      <feColorMatrix type="saturate" values="0"/>
      <feComponentTransfer><feFuncA type="table" tableValues="0 .18"/></feComponentTransfer>
    </filter>
    <filter id="rough" x="-15%" y="-15%" width="130%" height="130%">
      <feTurbulence type="fractalNoise" baseFrequency=".018" numOctaves="4" seed="8" result="n"/>
      <feDisplacementMap in="SourceGraphic" in2="n" scale="28" xChannelSelector="R" yChannelSelector="G"/>
    </filter>
    <radialGradient id="vignette" cx="50%" cy="48%" r="72%">
      <stop offset="58%" stop-color="#000" stop-opacity="0"/>
      <stop offset="100%" stop-color="#000" stop-opacity=".72"/>
    </radialGradient>
    
  </defs>
  <rect width="1280" height="1280" fill="#07080b"/>
  
      <linearGradient id="g6" x1="0" y1="0" x2="1" y2="1"><stop stop-color="#f7d07a"/><stop offset=".48" stop-color="#ef5b2c"/><stop offset="1" stop-color="#140b0a"/></linearGradient>
      <rect width="1280" height="1280" fill="url(#g6)"/>
      <circle cx="630.0" cy="630.0" r="103.0" fill="#150b08" opacity=".64" stroke="#120807" stroke-width="8"/><circle cx="888.4" cy="820.3" r="152.3" fill="#f7c36b" opacity=".64" stroke="#120807" stroke-width="8"/><circle cx="1101.3" cy="267.2" r="177.3" fill="#ff3d1f" opacity=".64" stroke="#120807" stroke-width="8"/><circle cx="1231.3" cy="1131.4" r="165.6" fill="#150b08" opacity=".64" stroke="#120807" stroke-width="8"/><circle cx="1255.5" cy="36.8" r="123.1" fill="#f7c36b" opacity=".64" stroke="#120807" stroke-width="8"/><circle cx="1169.6" cy="1259.6" r="70.6" fill="#ff3d1f" opacity=".64" stroke="#120807" stroke-width="8"/><circle cx="988.7" cy="22.8" r="34.1" fill="#150b08" opacity=".64" stroke="#120807" stroke-width="8"/><circle cx="744.8" cy="1158.0" r="31.6" fill="#f7c36b" opacity=".64" stroke="#120807" stroke-width="8"/><circle cx="480.6" cy="230.4" r="64.3" fill="#ff3d1f" opacity=".64" stroke="#120807" stroke-width="8"/><circle cx="242.7" cy="863.8" r="116.1" fill="#150b08" opacity=".64" stroke="#120807" stroke-width="8"/><circle cx="73.0" cy="583.8" r="161.5" fill="#f7c36b" opacity=".64" stroke="#120807" stroke-width="8"/><circle cx="1.3" cy="484.3" r="177.9" fill="#ff3d1f" opacity=".64" stroke="#120807" stroke-width="8"/><circle cx="40.2" cy="954.0" r="157.4" fill="#150b08" opacity=".64" stroke="#120807" stroke-width="8"/><circle cx="182.9" cy="157.9" r="110.1" fill="#f7c36b" opacity=".64" stroke="#120807" stroke-width="8"/><circle cx="404.3" cy="1206.0" r="59.2" fill="#ff3d1f" opacity=".64" stroke="#120807" stroke-width="8"/><circle cx="665.4" cy="3.8" r="30.0" fill="#150b08" opacity=".64" stroke="#120807" stroke-width="8"/><circle cx="920.3" cy="1247.9" r="36.7" fill="#f7c36b" opacity=".64" stroke="#120807" stroke-width="8"/><circle cx="1124.1" cy="78.2" r="76.2" fill="#ff3d1f" opacity=".64" stroke="#120807" stroke-width="8"/><circle cx="1240.9" cy="1064.2" r="128.9" fill="#150b08" opacity=".64" stroke="#120807" stroke-width="8"/><circle cx="1250.3" cy="353.9" r="168.8" fill="#f7c36b" opacity=".64" stroke="#120807" stroke-width="8"/><circle cx="1150.5" cy="722.2" r="176.2" fill="#ff3d1f" opacity=".64" stroke="#120807" stroke-width="8"/><circle cx="959.1" cy="730.3" r="147.6" fill="#150b08" opacity=".64" stroke="#120807" stroke-width="8"/><circle cx="709.8" cy="346.5" r="96.9" fill="#f7c36b" opacity=".64" stroke="#120807" stroke-width="8"/><circle cx="446.4" cy="1070.2" r="49.2" fill="#ff3d1f" opacity=".64" stroke="#120807" stroke-width="8"/><circle cx="215.4" cy="74.2" r="28.1" fill="#150b08" opacity=".64" stroke="#120807" stroke-width="8"/><circle cx="57.3" cy="1249.4" r="43.9" fill="#f7c36b" opacity=".64" stroke="#120807" stroke-width="8"/><circle cx="0.0" cy="4.8" r="88.9" fill="#ff3d1f" opacity=".64" stroke="#120807" stroke-width="8"/><circle cx="53.6" cy="1202.6" r="140.8" fill="#150b08" opacity=".64" stroke="#120807" stroke-width="8"/><circle cx="208.6" cy="163.4" r="174.1" fill="#f7c36b" opacity=".64" stroke="#120807" stroke-width="8"/><circle cx="437.7" cy="946.9" r="172.3" fill="#ff3d1f" opacity=".64" stroke="#120807" stroke-width="8"/><circle cx="700.7" cy="492.3" r="136.3" fill="#150b08" opacity=".64" stroke="#120807" stroke-width="8"/><circle cx="951.3" cy="575.6" r="83.9" fill="#f7c36b" opacity=".64" stroke="#120807" stroke-width="8"/><circle cx="1145.3" cy="871.5" r="40.9" fill="#ff3d1f" opacity=".64" stroke="#120807" stroke-width="8"/><circle cx="1248.6" cy="224.1" r="28.6" fill="#150b08" opacity=".64" stroke="#120807" stroke-width="8"/><circle cx="1243.1" cy="1162.5" r="52.9" fill="#f7c36b" opacity=".64" stroke="#120807" stroke-width="8"/><circle cx="1129.7" cy="20.7" r="102.0" fill="#ff3d1f" opacity=".64" stroke="#120807" stroke-width="8"/><circle cx="928.3" cy="1259.2" r="151.6" fill="#150b08" opacity=".64" stroke="#120807" stroke-width="8"/><circle cx="674.5" cy="39.6" r="177.2" fill="#f7c36b" opacity=".64" stroke="#120807" stroke-width="8"/><circle cx="412.8" cy="1126.4" r="166.2" fill="#ff3d1f" opacity=".64" stroke="#120807" stroke-width="8"/><circle cx="189.4" cy="274.0" r="124.0" fill="#150b08" opacity=".64" stroke="#120807" stroke-width="8"/><circle cx="43.5" cy="812.4" r="71.5" fill="#f7c36b" opacity=".64" stroke="#120807" stroke-width="8"/><circle cx="0.8" cy="638.3" r="34.5" fill="#ff3d1f" opacity=".64" stroke="#120807" stroke-width="8"/>
    
  <rect width="1280" height="1280" fill="url(#vignette)"/>
  <rect width="1280" height="1280" filter="url(#grain)" opacity=".75"/>
</svg>
