<?xml version="1.0" encoding="UTF-8"?>
<svg xmlns="http://www.w3.org/2000/svg" width="1280" height="1280" viewBox="0 0 1280 1280">
  <defs>
    <filter id="grain" x="-20%" y="-20%" width="140%" height="140%">
      <feTurbulence type="fractalNoise" baseFrequency=".72" numOctaves="3" seed="17"/>
      <feColorMatrix type="saturate" values="0"/>
      <feComponentTransfer><feFuncA type="table" tableValues="0 .18"/></feComponentTransfer>
    </filter>
    <filter id="rough" x="-15%" y="-15%" width="130%" height="130%">
      <feTurbulence type="fractalNoise" baseFrequency=".018" numOctaves="4" seed="8" result="n"/>
      <feDisplacementMap in="SourceGraphic" in2="n" scale="28" xChannelSelector="R" yChannelSelector="G"/>
    </filter>
    <radialGradient id="vignette" cx="50%" cy="48%" r="72%">
      <stop offset="58%" stop-color="#000" stop-opacity="0"/>
      <stop offset="100%" stop-color="#000" stop-opacity=".72"/>
    </radialGradient>
    
  </defs>
  <rect width="1280" height="1280" fill="#07080b"/>
  
      <linearGradient id="g9" x1="0" y1="0" x2="1" y2="1"><stop stop-color="#080907"/><stop offset=".48" stop-color="#2b321e"/><stop offset="1" stop-color="#050605"/></linearGradient>
      <rect width="1280" height="1280" fill="url(#g9)"/>
      <circle cx="640.0" cy="640.0" r="56.0" fill="#1f130d" opacity=".26" filter="url(#rough)"/><circle cx="751.0" cy="81.9" r="57.0" fill="#6ed043" opacity=".26" filter="url(#rough)"/><circle cx="421.3" cy="1186.4" r="54.0" fill="#1f130d" opacity=".26" filter="url(#rough)"/><circle cx="959.7" cy="663.2" r="59.0" fill="#6ed043" opacity=".26" filter="url(#rough)"/><circle cx="229.0" cy="70.9" r="51.9" fill="#1f130d" opacity=".26" filter="url(#rough)"/><circle cx="1129.9" cy="1173.9" r="61.1" fill="#6ed043" opacity=".26" filter="url(#rough)"/><circle cx="86.1" cy="686.4" r="49.9" fill="#1f130d" opacity=".26" filter="url(#rough)"/><circle cx="1241.1" cy="60.7" r="63.1" fill="#6ed043" opacity=".26" filter="url(#rough)"/><circle cx="9.9" cy="1160.7" r="47.9" fill="#1f130d" opacity=".26" filter="url(#rough)"/><circle cx="1280.0" cy="709.5" r="65.1" fill="#6ed043" opacity=".26" filter="url(#rough)"/><circle cx="9.5" cy="51.2" r="45.9" fill="#1f130d" opacity=".26" filter="url(#rough)"/><circle cx="1241.9" cy="1146.9" r="67.0" fill="#6ed043" opacity=".26" filter="url(#rough)"/><circle cx="85.0" cy="732.6" r="44.0" fill="#1f130d" opacity=".26" filter="url(#rough)"/><circle cx="1131.3" cy="42.5" r="69.0" fill="#6ed043" opacity=".26" filter="url(#rough)"/><circle cx="227.3" cy="1132.4" r="42.1" fill="#1f130d" opacity=".26" filter="url(#rough)"/><circle cx="961.7" cy="755.5" r="70.9" fill="#6ed043" opacity=".26" filter="url(#rough)"/><circle cx="419.2" cy="34.5" r="40.2" fill="#1f130d" opacity=".26" filter="url(#rough)"/><circle cx="753.3" cy="1117.2" r="72.8" fill="#6ed043" opacity=".26" filter="url(#rough)"/><circle cx="637.7" cy="778.3" r="38.3" fill="#1f130d" opacity=".26" filter="url(#rough)"/><circle cx="531.2" cy="27.4" r="74.6" fill="#6ed043" opacity=".26" filter="url(#rough)"/><circle cx="856.5" cy="1101.4" r="36.5" fill="#1f130d" opacity=".26" filter="url(#rough)"/><circle cx="322.3" cy="800.9" r="76.4" fill="#6ed043" opacity=".26" filter="url(#rough)"/><circle cx="1049.2" cy="21.1" r="34.7" fill="#1f130d" opacity=".26" filter="url(#rough)"/><circle cx="151.6" cy="1085.0" r="78.1" fill="#6ed043" opacity=".26" filter="url(#rough)"/><circle cx="1192.7" cy="823.2" r="33.0" fill="#1f130d" opacity=".26" filter="url(#rough)"/><circle cx="39.7" cy="15.6" r="79.8" fill="#6ed043" opacity=".26" filter="url(#rough)"/><circle cx="1269.7" cy="1068.1" r="31.4" fill="#1f130d" opacity=".26" filter="url(#rough)"/><circle cx="0.0" cy="845.4" r="81.4" fill="#6ed043" opacity=".26" filter="url(#rough)"/><circle cx="1270.9" cy="10.9" r="29.8" fill="#1f130d" opacity=".26" filter="url(#rough)"/><circle cx="37.3" cy="1050.5" r="83.0" fill="#6ed043" opacity=".26" filter="url(#rough)"/><circle cx="1196.2" cy="867.2" r="28.3" fill="#1f130d" opacity=".26" filter="url(#rough)"/><circle cx="147.2" cy="7.0" r="84.5" fill="#6ed043" opacity=".26" filter="url(#rough)"/><circle cx="1054.5" cy="1032.4" r="26.8" fill="#1f130d" opacity=".26" filter="url(#rough)"/><circle cx="316.4" cy="888.8" r="85.9" fill="#6ed043" opacity=".26" filter="url(#rough)"/><circle cx="863.0" cy="4.0" r="25.4" fill="#1f130d" opacity=".26" filter="url(#rough)"/><circle cx="524.5" cy="1013.8" r="87.3" fill="#6ed043" opacity=".26" filter="url(#rough)"/><circle cx="644.6" cy="910.0" r="24.1" fill="#1f130d" opacity=".26" filter="url(#rough)"/><circle cx="746.5" cy="1.8" r="88.5" fill="#6ed043" opacity=".26" filter="url(#rough)"/><circle cx="425.7" cy="994.7" r="22.9" fill="#1f130d" opacity=".26" filter="url(#rough)"/><circle cx="955.7" cy="930.9" r="89.7" fill="#6ed043" opacity=".26" filter="url(#rough)"/><circle cx="232.5" cy="0.5" r="21.7" fill="#1f130d" opacity=".26" filter="url(#rough)"/><circle cx="1126.9" cy="975.2" r="90.8" fill="#6ed043" opacity=".26" filter="url(#rough)"/><circle cx="88.4" cy="951.4" r="20.6" fill="#1f130d" opacity=".26" filter="url(#rough)"/><circle cx="1239.5" cy="0.0" r="91.9" fill="#6ed043" opacity=".26" filter="url(#rough)"/><circle cx="10.7" cy="955.2" r="19.6" fill="#1f130d" opacity=".26" filter="url(#rough)"/><circle cx="1280.0" cy="971.5" r="92.8" fill="#6ed043" opacity=".26" filter="url(#rough)"/><circle cx="8.7" cy="0.3" r="18.7" fill="#1f130d" opacity=".26" filter="url(#rough)"/><circle cx="1243.4" cy="934.7" r="93.7" fill="#6ed043" opacity=".26" filter="url(#rough)"/><circle cx="82.7" cy="991.1" r="17.9" fill="#1f130d" opacity=".26" filter="url(#rough)"/><circle cx="1134.3" cy="1.5" r="94.4" fill="#6ed043" opacity=".26" filter="url(#rough)"/><circle cx="223.8" cy="913.9" r="17.2" fill="#1f130d" opacity=".26" filter="url(#rough)"/><circle cx="965.6" cy="1010.3" r="95.1" fill="#6ed043" opacity=".26" filter="url(#rough)"/><circle cx="414.9" cy="3.6" r="16.6" fill="#1f130d" opacity=".26" filter="url(#rough)"/><circle cx="757.8" cy="892.8" r="95.6" fill="#6ed043" opacity=".26" filter="url(#rough)"/><circle cx="633.1" cy="1029.0" r="16.1" fill="#1f130d" opacity=".26" filter="url(#rough)"/><circle cx="535.8" cy="6.4" r="96.1" fill="#6ed043" opacity=".26" filter="url(#rough)"/><circle cx="852.2" cy="871.3" r="15.7" fill="#1f130d" opacity=".26" filter="url(#rough)"/><circle cx="326.3" cy="1047.2" r="96.5" fill="#6ed043" opacity=".26" filter="url(#rough)"/><circle cx="1045.7" cy="10.1" r="15.4" fill="#1f130d" opacity=".26" filter="url(#rough)"/><circle cx="154.6" cy="849.5" r="96.8" fill="#6ed043" opacity=".26" filter="url(#rough)"/><circle cx="1190.4" cy="1064.8" r="15.1" fill="#1f130d" opacity=".26" filter="url(#rough)"/><circle cx="41.3" cy="14.7" r="96.9" fill="#6ed043" opacity=".26" filter="url(#rough)"/><circle cx="1268.9" cy="827.4" r="15.0" fill="#1f130d" opacity=".26" filter="url(#rough)"/><circle cx="0.1" cy="1081.9" r="97.0" fill="#6ed043" opacity=".26" filter="url(#rough)"/><circle cx="1271.6" cy="20.0" r="15.0" fill="#1f130d" opacity=".26" filter="url(#rough)"/><circle cx="35.8" cy="805.0" r="97.0" fill="#6ed043" opacity=".26" filter="url(#rough)"/><circle cx="1198.4" cy="1098.4" r="15.1" fill="#1f130d" opacity=".26" filter="url(#rough)"/><circle cx="144.3" cy="26.2" r="96.8" fill="#6ed043" opacity=".26" filter="url(#rough)"/><circle cx="1058.0" cy="782.5" r="15.3" fill="#1f130d" opacity=".26" filter="url(#rough)"/><circle cx="312.4" cy="1114.3" r="96.6" fill="#6ed043" opacity=".26" filter="url(#rough)"/><circle cx="867.3" cy="33.1" r="15.5" fill="#1f130d" opacity=".26" filter="url(#rough)"/><circle cx="520.0" cy="759.8" r="96.3" fill="#6ed043" opacity=".26" filter="url(#rough)"/><circle cx="649.2" cy="1129.6" r="15.9" fill="#1f130d" opacity=".26" filter="url(#rough)"/><circle cx="742.0" cy="40.9" r="95.8" fill="#6ed043" opacity=".26" filter="url(#rough)"/><circle cx="430.0" cy="736.9" r="16.4" fill="#1f130d" opacity=".26" filter="url(#rough)"/><circle cx="951.7" cy="1144.2" r="95.3" fill="#6ed043" opacity=".26" filter="url(#rough)"/><circle cx="236.1" cy="49.5" r="17.0" fill="#1f130d" opacity=".26" filter="url(#rough)"/><circle cx="1123.9" cy="713.9" r="94.7" fill="#6ed043" opacity=".26" filter="url(#rough)"/><circle cx="90.8" cy="1158.2" r="17.7" fill="#1f130d" opacity=".26" filter="url(#rough)"/><circle cx="1237.9" cy="58.8" r="94.0" fill="#6ed043" opacity=".26" filter="url(#rough)"/><circle cx="11.6" cy="690.7" r="18.4" fill="#1f130d" opacity=".26" filter="url(#rough)"/><circle cx="1279.9" cy="1171.5" r="93.2" fill="#6ed043" opacity=".26" filter="url(#rough)"/><circle cx="8.0" cy="68.9" r="19.3" fill="#1f130d" opacity=".26" filter="url(#rough)"/><circle cx="1244.9" cy="667.6" r="92.3" fill="#6ed043" opacity=".26" filter="url(#rough)"/><circle cx="80.5" cy="1184.1" r="20.2" fill="#1f130d" opacity=".26" filter="url(#rough)"/><circle cx="1137.2" cy="79.8" r="91.3" fill="#6ed043" opacity=".26" filter="url(#rough)"/><circle cx="220.3" cy="644.3" r="21.3" fill="#1f130d" opacity=".26" filter="url(#rough)"/><circle cx="969.5" cy="1196.0" r="90.2" fill="#6ed043" opacity=".26" filter="url(#rough)"/><circle cx="410.6" cy="91.4" r="22.4" fill="#1f130d" opacity=".26" filter="url(#rough)"/><circle cx="762.3" cy="621.1" r="89.0" fill="#6ed043" opacity=".26" filter="url(#rough)"/><circle cx="628.5" cy="1207.1" r="23.6" fill="#1f130d" opacity=".26" filter="url(#rough)"/><circle cx="540.3" cy="103.7" r="87.8" fill="#6ed043" opacity=".26" filter="url(#rough)"/><circle cx="847.8" cy="597.9" r="24.9" fill="#1f130d" opacity=".26" filter="url(#rough)"/><circle cx="330.3" cy="1217.5" r="86.5" fill="#6ed043" opacity=".26" filter="url(#rough)"/><circle cx="1042.1" cy="116.8" r="26.2" fill="#1f130d" opacity=".26" filter="url(#rough)"/><circle cx="157.6" cy="574.8" r="85.1" fill="#6ed043" opacity=".26" filter="url(#rough)"/><circle cx="1188.0" cy="1227.1" r="27.7" fill="#1f130d" opacity=".26" filter="url(#rough)"/><circle cx="42.9" cy="130.5" r="83.6" fill="#6ed043" opacity=".26" filter="url(#rough)"/><circle cx="1268.0" cy="551.7" r="29.2" fill="#1f130d" opacity=".26" filter="url(#rough)"/><circle cx="0.1" cy="1236.0" r="82.1" fill="#6ed043" opacity=".26" filter="url(#rough)"/><circle cx="1272.4" cy="144.9" r="30.7" fill="#1f130d" opacity=".26" filter="url(#rough)"/><circle cx="34.3" cy="528.8" r="80.5" fill="#6ed043" opacity=".26" filter="url(#rough)"/><circle cx="1200.6" cy="1244.0" r="32.4" fill="#1f130d" opacity=".26" filter="url(#rough)"/><circle cx="141.4" cy="159.9" r="78.8" fill="#6ed043" opacity=".26" filter="url(#rough)"/><circle cx="1061.4" cy="506.0" r="34.1" fill="#1f130d" opacity=".26" filter="url(#rough)"/><circle cx="308.5" cy="1251.3" r="77.1" fill="#6ed043" opacity=".26" filter="url(#rough)"/><circle cx="871.5" cy="175.6" r="35.8" fill="#1f130d" opacity=".26" filter="url(#rough)"/><circle cx="515.5" cy="483.3" r="75.3" fill="#6ed043" opacity=".26" filter="url(#rough)"/><circle cx="653.8" cy="1257.8" r="37.6" fill="#1f130d" opacity=".26" filter="url(#rough)"/><circle cx="737.4" cy="191.9" r="73.5" fill="#6ed043" opacity=".26" filter="url(#rough)"/><circle cx="434.3" cy="460.9" r="39.4" fill="#1f130d" opacity=".26" filter="url(#rough)"/><circle cx="947.7" cy="1263.4" r="71.6" fill="#6ed043" opacity=".26" filter="url(#rough)"/><circle cx="239.6" cy="208.7" r="41.3" fill="#1f130d" opacity=".26" filter="url(#rough)"/><circle cx="1120.9" cy="438.8" r="69.7" fill="#6ed043" opacity=".26" filter="url(#rough)"/><circle cx="93.1" cy="1268.3" r="43.2" fill="#1f130d" opacity=".26" filter="url(#rough)"/><circle cx="1236.2" cy="226.2" r="67.8" fill="#6ed043" opacity=".26" filter="url(#rough)"/><circle cx="12.5" cy="416.8" r="45.2" fill="#1f130d" opacity=".26" filter="url(#rough)"/><circle cx="1279.8" cy="1272.3" r="65.8" fill="#6ed043" opacity=".26" filter="url(#rough)"/><circle cx="7.3" cy="244.2" r="47.1" fill="#1f130d" opacity=".26" filter="url(#rough)"/><circle cx="1246.4" cy="395.2" r="63.9" fill="#6ed043" opacity=".26" filter="url(#rough)"/>
      <path d="M170 -40 C430 300 210 550 530 760 C830 960 780 1170 1020 1340" stroke="#1a100c" stroke-width="180" opacity=".68" fill="none" filter="url(#rough)"/>
    
  <rect width="1280" height="1280" fill="url(#vignette)"/>
  <rect width="1280" height="1280" filter="url(#grain)" opacity=".75"/>
</svg>
