<?xml version="1.0" encoding="UTF-8"?>
<svg xmlns="http://www.w3.org/2000/svg" width="200" height="200" viewBox="0 0 1280 1280">
  <defs>
    <filter id="grain" x="-20%" y="-20%" width="140%" height="140%">
      <feTurbulence type="fractalNoise" baseFrequency=".72" numOctaves="3" seed="17"/>
      <feColorMatrix type="saturate" values="0"/>
      <feComponentTransfer><feFuncA type="table" tableValues="0 .18"/></feComponentTransfer>
    </filter>
    <filter id="rough" x="-15%" y="-15%" width="130%" height="130%">
      <feTurbulence type="fractalNoise" baseFrequency=".018" numOctaves="4" seed="8" result="n"/>
      <feDisplacementMap in="SourceGraphic" in2="n" scale="28" xChannelSelector="R" yChannelSelector="G"/>
    </filter>
    <radialGradient id="vignette" cx="50%" cy="48%" r="72%">
      <stop offset="58%" stop-color="#000" stop-opacity="0"/>
      <stop offset="100%" stop-color="#000" stop-opacity=".72"/>
    </radialGradient>
    
  </defs>
  <rect width="1280" height="1280" fill="#07080b"/>
  
      <linearGradient id="g5" x1="0" y1="0" x2="1" y2="1"><stop stop-color="#071014"/><stop offset=".5" stop-color="#121014"/><stop offset="1" stop-color="#05070b"/></linearGradient>
      <rect width="1280" height="1280" fill="url(#g5)"/>
      <path d="M-120 830 C120 500 250 710 430 490 C630 245 760 690 1010 430 C1160 275 1240 245 1390 240" stroke="#19b8ce" stroke-width="132" fill="none" opacity=".74" filter="url(#rough)"/>
      <path d="M-120 780 C140 425 315 690 510 455 C675 255 830 640 1060 410 C1200 270 1280 230 1400 220" stroke="#f2b23d" stroke-width="58" fill="none" opacity=".7" filter="url(#rough)"/>
      <path d="M-100 855 C130 540 340 780 520 560 C720 320 910 720 1180 390" stroke="#d83f8d" stroke-width="36" fill="none" opacity=".6" filter="url(#rough)"/>
      <g><circle cx="640.0" cy="1117.3" r="2.2" fill="#ffe9b5" opacity="0.49"/><circle cx="266.2" cy="192.0" r="2.9" fill="#ffe9b5" opacity="0.21"/><circle cx="1246.9" cy="1056.9" r="3.4" fill="#ffe9b5" opacity="0.26"/><circle cx="28.7" cy="256.1" r="3.6" fill="#ffe9b5" opacity="0.58"/><circle cx="1025.5" cy="989.2" r="3.4" fill="#ffe9b5" opacity="0.80"/><circle cx="625.6" cy="327.0" r="2.8" fill="#ffe9b5" opacity="0.65"/><circle cx="278.0" cy="915.5" r="2.1" fill="#ffe9b5" opacity="0.31"/><circle cx="1242.1" cy="403.3" r="1.4" fill="#ffe9b5" opacity="0.19"/><circle cx="24.6" cy="836.9" r="0.9" fill="#ffe9b5" opacity="0.42"/><circle cx="1036.9" cy="483.8" r="0.8" fill="#ffe9b5" opacity="0.74"/><circle cx="611.2" cy="754.9" r="1.1" fill="#ffe9b5" opacity="0.76"/><circle cx="289.9" cy="567.0" r="1.6" fill="#ffe9b5" opacity="0.47"/><circle cx="1237.1" cy="670.9" r="2.4" fill="#ffe9b5" opacity="0.20"/><circle cx="20.8" cy="651.4" r="3.1" fill="#ffe9b5" opacity="0.28"/><circle cx="1048.1" cy="586.3" r="3.5" fill="#ffe9b5" opacity="0.61"/><circle cx="596.8" cy="735.7" r="3.6" fill="#ffe9b5" opacity="0.80"/><circle cx="302.1" cy="502.7" r="3.3" fill="#ffe9b5" opacity="0.63"/><circle cx="1231.8" cy="818.3" r="2.7" fill="#ffe9b5" opacity="0.29"/><circle cx="17.3" cy="421.5" r="1.9" fill="#ffe9b5" opacity="0.19"/><circle cx="1059.1" cy="897.7" r="1.3" fill="#ffe9b5" opacity="0.44"/><circle cx="582.4" cy="344.1" r="0.9" fill="#ffe9b5" opacity="0.75"/><circle cx="314.4" cy="972.7" r="0.8" fill="#ffe9b5" opacity="0.75"/><circle cx="1226.1" cy="271.9" r="1.2" fill="#ffe9b5" opacity="0.44"/><circle cx="14.1" cy="1041.9" r="1.8" fill="#ffe9b5" opacity="0.19"/><circle cx="1069.9" cy="206.1" r="2.5" fill="#ffe9b5" opacity="0.29"/><circle cx="568.1" cy="1104.1" r="3.2" fill="#ffe9b5" opacity="0.63"/><circle cx="326.9" cy="147.8" r="3.6" fill="#ffe9b5" opacity="0.80"/><circle cx="1220.2" cy="1158.1" r="3.5" fill="#ffe9b5" opacity="0.60"/><circle cx="11.3" cy="98.2" r="3.2" fill="#ffe9b5" opacity="0.27"/><circle cx="1080.4" cy="1203.1" r="2.5" fill="#ffe9b5" opacity="0.20"/><circle cx="553.8" cy="58.0" r="1.8" fill="#ffe9b5" opacity="0.47"/><circle cx="339.6" cy="1238.3" r="1.2" fill="#ffe9b5" opacity="0.76"/><circle cx="1213.9" cy="28.0" r="0.8" fill="#ffe9b5" opacity="0.74"/><circle cx="8.7" cy="1263.0" r="0.9" fill="#ffe9b5" opacity="0.42"/><circle cx="1090.8" cy="8.7" r="1.3" fill="#ffe9b5" opacity="0.19"/><circle cx="539.5" cy="1276.9" r="2.0" fill="#ffe9b5" opacity="0.31"/><circle cx="352.4" cy="0.3" r="2.7" fill="#ffe9b5" opacity="0.65"/><circle cx="1207.4" cy="1279.6" r="3.3" fill="#ffe9b5" opacity="0.80"/><circle cx="6.5" cy="3.2" r="3.6" fill="#ffe9b5" opacity="0.58"/><circle cx="1100.9" cy="1271.2" r="3.5" fill="#ffe9b5" opacity="0.26"/><circle cx="525.3" cy="17.1" r="3.0" fill="#ffe9b5" opacity="0.21"/><circle cx="365.3" cy="1251.8" r="2.4" fill="#ffe9b5" opacity="0.49"/><circle cx="1200.6" cy="42.0" r="1.6" fill="#ffe9b5" opacity="0.77"/><circle cx="4.6" cy="1221.6" r="1.1" fill="#ffe9b5" opacity="0.72"/><circle cx="1110.8" cy="77.3" r="0.8" fill="#ffe9b5" opacity="0.39"/><circle cx="511.1" cy="1181.4" r="0.9" fill="#ffe9b5" opacity="0.18"/><circle cx="378.4" cy="122.4" r="1.4" fill="#ffe9b5" opacity="0.33"/><circle cx="1193.5" cy="1131.6" r="2.1" fill="#ffe9b5" opacity="0.67"/><circle cx="3.1" cy="176.5" r="2.8" fill="#ffe9b5" opacity="0.79"/><circle cx="1120.4" cy="1073.3" r="3.4" fill="#ffe9b5" opacity="0.56"/><circle cx="497.0" cy="238.7" r="3.6" fill="#ffe9b5" opacity="0.24"/><circle cx="391.6" cy="1007.5" r="3.4" fill="#ffe9b5" opacity="0.22"/><circle cx="1186.1" cy="308.0" r="2.9" fill="#ffe9b5" opacity="0.52"/><circle cx="1.8" cy="935.2" r="2.2" fill="#ffe9b5" opacity="0.78"/><circle cx="1129.8" cy="383.0" r="1.5" fill="#ffe9b5" opacity="0.70"/><circle cx="483.0" cy="857.7" r="1.0" fill="#ffe9b5" opacity="0.37"/><circle cx="405.0" cy="462.5" r="0.8" fill="#ffe9b5" opacity="0.18"/><circle cx="1178.5" cy="776.5" r="1.0" fill="#ffe9b5" opacity="0.36"/><circle cx="0.9" cy="545.1" r="1.6" fill="#ffe9b5" opacity="0.69"/><circle cx="1139.0" cy="692.9" r="2.3" fill="#ffe9b5" opacity="0.79"/><circle cx="469.1" cy="629.4" r="3.0" fill="#ffe9b5" opacity="0.53"/><circle cx="418.5" cy="608.3" r="3.5" fill="#ffe9b5" opacity="0.23"/><circle cx="1170.6" cy="713.8" r="3.6" fill="#ffe9b5" opacity="0.23"/><circle cx="0.3" cy="524.3" r="3.3" fill="#ffe9b5" opacity="0.54"/><circle cx="1147.9" cy="797.0" r="2.8" fill="#ffe9b5" opacity="0.79"/><circle cx="455.2" cy="442.3" r="2.0" fill="#ffe9b5" opacity="0.68"/><circle cx="432.0" cy="877.4" r="1.3" fill="#ffe9b5" opacity="0.35"/><circle cx="1162.4" cy="363.8" r="0.9" fill="#ffe9b5" opacity="0.18"/><circle cx="0.0" cy="953.7" r="0.8" fill="#ffe9b5" opacity="0.38"/><circle cx="1156.5" cy="290.1" r="1.1" fill="#ffe9b5" opacity="0.71"/></g>
    
  <rect width="1280" height="1280" fill="url(#vignette)"/>
  <rect width="1280" height="1280" filter="url(#grain)" opacity=".75"/>
</svg>
