<?xml version="1.0" encoding="UTF-8"?>
<svg xmlns="http://www.w3.org/2000/svg" width="200" height="200" viewBox="0 0 1280 1280">
  <defs>
    <filter id="grain" x="-20%" y="-20%" width="140%" height="140%">
      <feTurbulence type="fractalNoise" baseFrequency=".72" numOctaves="3" seed="17"/>
      <feColorMatrix type="saturate" values="0"/>
      <feComponentTransfer><feFuncA type="table" tableValues="0 .18"/></feComponentTransfer>
    </filter>
    <filter id="rough" x="-15%" y="-15%" width="130%" height="130%">
      <feTurbulence type="fractalNoise" baseFrequency=".018" numOctaves="4" seed="8" result="n"/>
      <feDisplacementMap in="SourceGraphic" in2="n" scale="28" xChannelSelector="R" yChannelSelector="G"/>
    </filter>
    <radialGradient id="vignette" cx="50%" cy="48%" r="72%">
      <stop offset="58%" stop-color="#000" stop-opacity="0"/>
      <stop offset="100%" stop-color="#000" stop-opacity=".72"/>
    </radialGradient>
    
  </defs>
  <rect width="1280" height="1280" fill="#07080b"/>
  
      <rect width="1280" height="1280" fill="#d7cbb5"/>
      <path d="M0 0 L490 0 L430 1280 L0 1280Z" fill="#111"/>
      <path d="M445 0 L820 0 L760 1280 L315 1280Z" fill="#c6332b"/>
      <path d="M720 210 L1280 0 L1280 1280 L640 1040Z" fill="#171515"/>
      <path d="M300 820 L745 610 L1015 800 L480 1095Z" fill="#17a7a9"/>
      <path d="M845 735 L1280 650 L1280 1280 L1000 1280Z" fill="#d7a72e"/>
      <path d="M0 0 L1280 0 L1280 1280 L0 1280Z" fill="none" stroke="#f6efe0" stroke-width="34" opacity=".42" filter="url(#rough)"/>
    
  <rect width="1280" height="1280" fill="url(#vignette)"/>
  <rect width="1280" height="1280" filter="url(#grain)" opacity=".75"/>
</svg>
