<?xml version="1.0" encoding="UTF-8"?>
<svg xmlns="http://www.w3.org/2000/svg" width="200" height="200" viewBox="0 0 1280 1280">
  <defs>
    <filter id="grain" x="-20%" y="-20%" width="140%" height="140%">
      <feTurbulence type="fractalNoise" baseFrequency=".72" numOctaves="3" seed="17"/>
      <feColorMatrix type="saturate" values="0"/>
      <feComponentTransfer><feFuncA type="table" tableValues="0 .18"/></feComponentTransfer>
    </filter>
    <filter id="rough" x="-15%" y="-15%" width="130%" height="130%">
      <feTurbulence type="fractalNoise" baseFrequency=".018" numOctaves="4" seed="8" result="n"/>
      <feDisplacementMap in="SourceGraphic" in2="n" scale="28" xChannelSelector="R" yChannelSelector="G"/>
    </filter>
    <radialGradient id="vignette" cx="50%" cy="48%" r="72%">
      <stop offset="58%" stop-color="#000" stop-opacity="0"/>
      <stop offset="100%" stop-color="#000" stop-opacity=".72"/>
    </radialGradient>
    
  </defs>
  <rect width="1280" height="1280" fill="#07080b"/>
  
      <linearGradient id="g7" x1="0" y1="0" x2="1" y2="0"><stop stop-color="#081013"/><stop offset=".5" stop-color="#18343b"/><stop offset="1" stop-color="#160b0a"/></linearGradient>
      <rect width="1280" height="1280" fill="url(#g7)"/>
      <rect x="-90" y="705.0" width="12" height="575.0" fill="#22c7d8" opacity="0.38" filter="url(#rough)"/><rect x="-63" y="293.5" width="20" height="986.5" fill="#ff5a35" opacity="0.38" filter="url(#rough)"/><rect x="-36" y="811.0" width="28" height="469.0" fill="#f4e7b6" opacity="0.38" filter="url(#rough)"/><rect x="-9" y="1089.2" width="36" height="190.8" fill="#0e1115" opacity="0.62" filter="url(#rough)"/><rect x="18" y="499.9" width="44" height="780.1" fill="#22c7d8" opacity="0.38" filter="url(#rough)"/><rect x="45" y="373.6" width="52" height="906.4" fill="#ff5a35" opacity="0.38" filter="url(#rough)"/><rect x="72" y="995.4" width="60" height="284.6" fill="#f4e7b6" opacity="0.38" filter="url(#rough)"/><rect x="99" y="961.5" width="12" height="318.5" fill="#0e1115" opacity="0.62" filter="url(#rough)"/><rect x="126" y="348.4" width="20" height="931.6" fill="#22c7d8" opacity="0.38" filter="url(#rough)"/><rect x="153" y="540.4" width="28" height="739.6" fill="#ff5a35" opacity="0.38" filter="url(#rough)"/><rect x="180" y="1104.0" width="36" height="176.0" fill="#f4e7b6" opacity="0.38" filter="url(#rough)"/><rect x="207" y="766.8" width="44" height="513.2" fill="#0e1115" opacity="0.62" filter="url(#rough)"/><rect x="234" y="290.1" width="52" height="989.9" fill="#22c7d8" opacity="0.38" filter="url(#rough)"/><rect x="261" y="750.1" width="60" height="529.9" fill="#ff5a35" opacity="0.38" filter="url(#rough)"/><rect x="288" y="1108.3" width="12" height="171.7" fill="#f4e7b6" opacity="0.38" filter="url(#rough)"/><rect x="315" y="556.0" width="20" height="724.0" fill="#0e1115" opacity="0.62" filter="url(#rough)"/><rect x="342" y="340.1" width="28" height="939.9" fill="#22c7d8" opacity="0.38" filter="url(#rough)"/><rect x="369" y="948.0" width="36" height="332.0" fill="#ff5a35" opacity="0.38" filter="url(#rough)"/><rect x="396" y="1007.3" width="44" height="272.7" fill="#f4e7b6" opacity="0.38" filter="url(#rough)"/><rect x="423" y="384.1" width="52" height="895.9" fill="#0e1115" opacity="0.62" filter="url(#rough)"/><rect x="450" y="485.4" width="60" height="794.6" fill="#22c7d8" opacity="0.38" filter="url(#rough)"/><rect x="477" y="1082.5" width="12" height="197.5" fill="#ff5a35" opacity="0.38" filter="url(#rough)"/><rect x="504" y="827.3" width="20" height="452.7" fill="#f4e7b6" opacity="0.38" filter="url(#rough)"/><rect x="531" y="296.0" width="28" height="984.0" fill="#0e1115" opacity="0.62" filter="url(#rough)"/><rect x="558" y="688.1" width="36" height="591.9" fill="#22c7d8" opacity="0.38" filter="url(#rough)"/><rect x="585" y="1118.4" width="44" height="161.6" fill="#ff5a35" opacity="0.38" filter="url(#rough)"/><rect x="612" y="615.4" width="52" height="664.6" fill="#f4e7b6" opacity="0.38" filter="url(#rough)"/><rect x="639" y="314.7" width="60" height="965.3" fill="#0e1115" opacity="0.62" filter="url(#rough)"/><rect x="666" y="895.2" width="12" height="384.8" fill="#22c7d8" opacity="0.38" filter="url(#rough)"/><rect x="693" y="1046.3" width="20" height="233.7" fill="#ff5a35" opacity="0.38" filter="url(#rough)"/><rect x="720" y="426.9" width="28" height="853.1" fill="#f4e7b6" opacity="0.38" filter="url(#rough)"/><rect x="747" y="435.4" width="36" height="844.6" fill="#0e1115" opacity="0.62" filter="url(#rough)"/><rect x="774" y="1052.6" width="44" height="227.4" fill="#22c7d8" opacity="0.38" filter="url(#rough)"/><rect x="801" y="885.0" width="52" height="395.0" fill="#ff5a35" opacity="0.38" filter="url(#rough)"/><rect x="828" y="311.0" width="60" height="969.0" fill="#f4e7b6" opacity="0.38" filter="url(#rough)"/><rect x="855" y="626.5" width="12" height="653.5" fill="#0e1115" opacity="0.62" filter="url(#rough)"/><rect x="882" y="1119.2" width="20" height="160.8" fill="#22c7d8" opacity="0.38" filter="url(#rough)"/><rect x="909" y="676.7" width="28" height="603.3" fill="#ff5a35" opacity="0.38" filter="url(#rough)"/><rect x="936" y="298.1" width="36" height="981.9" fill="#f4e7b6" opacity="0.38" filter="url(#rough)"/><rect x="963" y="838.1" width="44" height="441.9" fill="#0e1115" opacity="0.62" filter="url(#rough)"/><rect x="990" y="1077.6" width="52" height="202.4" fill="#22c7d8" opacity="0.38" filter="url(#rough)"/><rect x="1017" y="475.9" width="60" height="804.1" fill="#ff5a35" opacity="0.38" filter="url(#rough)"/><rect x="1044" y="391.4" width="12" height="888.6" fill="#f4e7b6" opacity="0.38" filter="url(#rough)"/><rect x="1071" y="1015.0" width="20" height="265.0" fill="#0e1115" opacity="0.62" filter="url(#rough)"/><rect x="1098" y="938.7" width="28" height="341.3" fill="#22c7d8" opacity="0.38" filter="url(#rough)"/><rect x="1125" y="334.8" width="36" height="945.2" fill="#ff5a35" opacity="0.38" filter="url(#rough)"/><rect x="1152" y="566.7" width="44" height="713.3" fill="#f4e7b6" opacity="0.38" filter="url(#rough)"/><rect x="1179" y="1110.8" width="52" height="169.2" fill="#0e1115" opacity="0.62" filter="url(#rough)"/><rect x="1206" y="738.7" width="60" height="541.3" fill="#22c7d8" opacity="0.38" filter="url(#rough)"/><rect x="1233" y="290.5" width="12" height="989.5" fill="#ff5a35" opacity="0.38" filter="url(#rough)"/><rect x="1260" y="778.1" width="20" height="501.9" fill="#f4e7b6" opacity="0.38" filter="url(#rough)"/><rect x="1287" y="1100.7" width="28" height="179.3" fill="#0e1115" opacity="0.62" filter="url(#rough)"/><rect x="1314" y="530.0" width="36" height="750.0" fill="#22c7d8" opacity="0.38" filter="url(#rough)"/><rect x="1341" y="354.4" width="44" height="925.6" fill="#ff5a35" opacity="0.38" filter="url(#rough)"/>
      <g transform="rotate(1 640 640)"><line x1="0" y1="-80" x2="0" y2="1360" stroke="#f8f0de" stroke-width="2" opacity="0.12"/><line x1="37" y1="-80" x2="37" y2="1360" stroke="#f8f0de" stroke-width="2" opacity="0.12"/><line x1="73" y1="-80" x2="73" y2="1360" stroke="#f8f0de" stroke-width="2" opacity="0.12"/><line x1="110" y1="-80" x2="110" y2="1360" stroke="#f8f0de" stroke-width="2" opacity="0.12"/><line x1="146" y1="-80" x2="146" y2="1360" stroke="#f8f0de" stroke-width="2" opacity="0.12"/><line x1="183" y1="-80" x2="183" y2="1360" stroke="#f8f0de" stroke-width="2" opacity="0.12"/><line x1="219" y1="-80" x2="219" y2="1360" stroke="#f8f0de" stroke-width="2" opacity="0.12"/><line x1="256" y1="-80" x2="256" y2="1360" stroke="#f8f0de" stroke-width="2" opacity="0.12"/><line x1="293" y1="-80" x2="293" y2="1360" stroke="#f8f0de" stroke-width="2" opacity="0.12"/><line x1="329" y1="-80" x2="329" y2="1360" stroke="#f8f0de" stroke-width="2" opacity="0.12"/><line x1="366" y1="-80" x2="366" y2="1360" stroke="#f8f0de" stroke-width="2" opacity="0.12"/><line x1="402" y1="-80" x2="402" y2="1360" stroke="#f8f0de" stroke-width="2" opacity="0.12"/><line x1="439" y1="-80" x2="439" y2="1360" stroke="#f8f0de" stroke-width="2" opacity="0.12"/><line x1="475" y1="-80" x2="475" y2="1360" stroke="#f8f0de" stroke-width="2" opacity="0.12"/><line x1="512" y1="-80" x2="512" y2="1360" stroke="#f8f0de" stroke-width="2" opacity="0.12"/><line x1="549" y1="-80" x2="549" y2="1360" stroke="#f8f0de" stroke-width="2" opacity="0.12"/><line x1="585" y1="-80" x2="585" y2="1360" stroke="#f8f0de" stroke-width="2" opacity="0.12"/><line x1="622" y1="-80" x2="622" y2="1360" stroke="#f8f0de" stroke-width="2" opacity="0.12"/><line x1="658" y1="-80" x2="658" y2="1360" stroke="#f8f0de" stroke-width="2" opacity="0.12"/><line x1="695" y1="-80" x2="695" y2="1360" stroke="#f8f0de" stroke-width="2" opacity="0.12"/><line x1="731" y1="-80" x2="731" y2="1360" stroke="#f8f0de" stroke-width="2" opacity="0.12"/><line x1="768" y1="-80" x2="768" y2="1360" stroke="#f8f0de" stroke-width="2" opacity="0.12"/><line x1="805" y1="-80" x2="805" y2="1360" stroke="#f8f0de" stroke-width="2" opacity="0.12"/><line x1="841" y1="-80" x2="841" y2="1360" stroke="#f8f0de" stroke-width="2" opacity="0.12"/><line x1="878" y1="-80" x2="878" y2="1360" stroke="#f8f0de" stroke-width="2" opacity="0.12"/><line x1="914" y1="-80" x2="914" y2="1360" stroke="#f8f0de" stroke-width="2" opacity="0.12"/><line x1="951" y1="-80" x2="951" y2="1360" stroke="#f8f0de" stroke-width="2" opacity="0.12"/><line x1="987" y1="-80" x2="987" y2="1360" stroke="#f8f0de" stroke-width="2" opacity="0.12"/><line x1="1024" y1="-80" x2="1024" y2="1360" stroke="#f8f0de" stroke-width="2" opacity="0.12"/><line x1="1061" y1="-80" x2="1061" y2="1360" stroke="#f8f0de" stroke-width="2" opacity="0.12"/><line x1="1097" y1="-80" x2="1097" y2="1360" stroke="#f8f0de" stroke-width="2" opacity="0.12"/><line x1="1134" y1="-80" x2="1134" y2="1360" stroke="#f8f0de" stroke-width="2" opacity="0.12"/><line x1="1170" y1="-80" x2="1170" y2="1360" stroke="#f8f0de" stroke-width="2" opacity="0.12"/><line x1="1207" y1="-80" x2="1207" y2="1360" stroke="#f8f0de" stroke-width="2" opacity="0.12"/><line x1="1243" y1="-80" x2="1243" y2="1360" stroke="#f8f0de" stroke-width="2" opacity="0.12"/><line x1="1280" y1="-80" x2="1280" y2="1360" stroke="#f8f0de" stroke-width="2" opacity="0.12"/></g>
    
  <rect width="1280" height="1280" fill="url(#vignette)"/>
  <rect width="1280" height="1280" filter="url(#grain)" opacity=".75"/>
</svg>
