<?xml version="1.0" encoding="UTF-8"?>
<svg xmlns="http://www.w3.org/2000/svg" width="1280" height="1280" viewBox="0 0 1280 1280">
  <defs>
    <filter id="grain" x="-20%" y="-20%" width="140%" height="140%">
      <feTurbulence type="fractalNoise" baseFrequency=".72" numOctaves="3" seed="17"/>
      <feColorMatrix type="saturate" values="0"/>
      <feComponentTransfer><feFuncA type="table" tableValues="0 .18"/></feComponentTransfer>
    </filter>
    <filter id="rough" x="-15%" y="-15%" width="130%" height="130%">
      <feTurbulence type="fractalNoise" baseFrequency=".018" numOctaves="4" seed="8" result="n"/>
      <feDisplacementMap in="SourceGraphic" in2="n" scale="28" xChannelSelector="R" yChannelSelector="G"/>
    </filter>
    <radialGradient id="vignette" cx="50%" cy="48%" r="72%">
      <stop offset="58%" stop-color="#000" stop-opacity="0"/>
      <stop offset="100%" stop-color="#000" stop-opacity=".72"/>
    </radialGradient>
    
  </defs>
  <rect width="1280" height="1280" fill="#07080b"/>
  
      <linearGradient id="g19" x1="0" y1="0" x2="1" y2="0"><stop stop-color="#32120b"/><stop offset=".3" stop-color="#e68a24"/><stop offset=".58" stop-color="#f1c367"/><stop offset="1" stop-color="#24363b"/></linearGradient>
      <rect width="1280" height="1280" fill="url(#g19)"/>
      <rect x="-80" y="0" width="900" height="10" fill="#fff0a8" opacity="0.12" filter="url(#rough)"/><rect x="-57" y="29" width="1090" height="18" fill="#1c130f" opacity="0.155" filter="url(#rough)"/><rect x="-34" y="58" width="1280" height="26" fill="#e95123" opacity="0.19" filter="url(#rough)"/><rect x="-11" y="87" width="1470" height="34" fill="#fff0a8" opacity="0.225" filter="url(#rough)"/><rect x="12" y="116" width="1660" height="42" fill="#1c130f" opacity="0.26" filter="url(#rough)"/><rect x="35" y="145" width="900" height="50" fill="#e95123" opacity="0.29500000000000004" filter="url(#rough)"/><rect x="58" y="174" width="1090" height="58" fill="#fff0a8" opacity="0.33" filter="url(#rough)"/><rect x="-80" y="203" width="1280" height="66" fill="#1c130f" opacity="0.365" filter="url(#rough)"/><rect x="-57" y="232" width="1470" height="10" fill="#e95123" opacity="0.12" filter="url(#rough)"/><rect x="-34" y="261" width="1660" height="18" fill="#fff0a8" opacity="0.155" filter="url(#rough)"/><rect x="-11" y="290" width="900" height="26" fill="#1c130f" opacity="0.19" filter="url(#rough)"/><rect x="12" y="319" width="1090" height="34" fill="#e95123" opacity="0.225" filter="url(#rough)"/><rect x="35" y="348" width="1280" height="42" fill="#fff0a8" opacity="0.26" filter="url(#rough)"/><rect x="58" y="377" width="1470" height="50" fill="#1c130f" opacity="0.29500000000000004" filter="url(#rough)"/><rect x="-80" y="406" width="1660" height="58" fill="#e95123" opacity="0.33" filter="url(#rough)"/><rect x="-57" y="435" width="900" height="66" fill="#fff0a8" opacity="0.365" filter="url(#rough)"/><rect x="-34" y="464" width="1090" height="10" fill="#1c130f" opacity="0.12" filter="url(#rough)"/><rect x="-11" y="493" width="1280" height="18" fill="#e95123" opacity="0.155" filter="url(#rough)"/><rect x="12" y="522" width="1470" height="26" fill="#fff0a8" opacity="0.19" filter="url(#rough)"/><rect x="35" y="551" width="1660" height="34" fill="#1c130f" opacity="0.225" filter="url(#rough)"/><rect x="58" y="580" width="900" height="42" fill="#e95123" opacity="0.26" filter="url(#rough)"/><rect x="-80" y="609" width="1090" height="50" fill="#fff0a8" opacity="0.29500000000000004" filter="url(#rough)"/><rect x="-57" y="638" width="1280" height="58" fill="#1c130f" opacity="0.33" filter="url(#rough)"/><rect x="-34" y="667" width="1470" height="66" fill="#e95123" opacity="0.365" filter="url(#rough)"/><rect x="-11" y="696" width="1660" height="10" fill="#fff0a8" opacity="0.12" filter="url(#rough)"/><rect x="12" y="725" width="900" height="18" fill="#1c130f" opacity="0.155" filter="url(#rough)"/><rect x="35" y="754" width="1090" height="26" fill="#e95123" opacity="0.19" filter="url(#rough)"/><rect x="58" y="783" width="1280" height="34" fill="#fff0a8" opacity="0.225" filter="url(#rough)"/><rect x="-80" y="812" width="1470" height="42" fill="#1c130f" opacity="0.26" filter="url(#rough)"/><rect x="-57" y="841" width="1660" height="50" fill="#e95123" opacity="0.29500000000000004" filter="url(#rough)"/><rect x="-34" y="870" width="900" height="58" fill="#fff0a8" opacity="0.33" filter="url(#rough)"/><rect x="-11" y="899" width="1090" height="66" fill="#1c130f" opacity="0.365" filter="url(#rough)"/><rect x="12" y="928" width="1280" height="10" fill="#e95123" opacity="0.12" filter="url(#rough)"/><rect x="35" y="957" width="1470" height="18" fill="#fff0a8" opacity="0.155" filter="url(#rough)"/><rect x="58" y="986" width="1660" height="26" fill="#1c130f" opacity="0.19" filter="url(#rough)"/><rect x="-80" y="1015" width="900" height="34" fill="#e95123" opacity="0.225" filter="url(#rough)"/><rect x="-57" y="1044" width="1090" height="42" fill="#fff0a8" opacity="0.26" filter="url(#rough)"/><rect x="-34" y="1073" width="1280" height="50" fill="#1c130f" opacity="0.29500000000000004" filter="url(#rough)"/><rect x="-11" y="1102" width="1470" height="58" fill="#e95123" opacity="0.33" filter="url(#rough)"/><rect x="12" y="1131" width="1660" height="66" fill="#fff0a8" opacity="0.365" filter="url(#rough)"/><rect x="35" y="1160" width="900" height="10" fill="#1c130f" opacity="0.12" filter="url(#rough)"/><rect x="58" y="1189" width="1090" height="18" fill="#e95123" opacity="0.155" filter="url(#rough)"/><rect x="-80" y="1218" width="1280" height="26" fill="#fff0a8" opacity="0.19" filter="url(#rough)"/><rect x="-57" y="1247" width="1470" height="34" fill="#1c130f" opacity="0.225" filter="url(#rough)"/><rect x="-34" y="1276" width="1660" height="42" fill="#e95123" opacity="0.26" filter="url(#rough)"/><rect x="-11" y="1305" width="900" height="50" fill="#fff0a8" opacity="0.29500000000000004" filter="url(#rough)"/><rect x="12" y="1334" width="1090" height="58" fill="#1c130f" opacity="0.33" filter="url(#rough)"/><rect x="35" y="1363" width="1280" height="66" fill="#e95123" opacity="0.365" filter="url(#rough)"/>
      <rect x="0" y="0" width="1280" height="1280" fill="#000" opacity=".08"/>
    
  <rect width="1280" height="1280" fill="url(#vignette)"/>
  <rect width="1280" height="1280" filter="url(#grain)" opacity=".75"/>
</svg>
