<?xml version="1.0" encoding="UTF-8"?>
<svg xmlns="http://www.w3.org/2000/svg" width="200" height="200" viewBox="0 0 1280 1280">
  <defs>
    <filter id="grain" x="-20%" y="-20%" width="140%" height="140%">
      <feTurbulence type="fractalNoise" baseFrequency=".72" numOctaves="3" seed="17"/>
      <feColorMatrix type="saturate" values="0"/>
      <feComponentTransfer><feFuncA type="table" tableValues="0 .18"/></feComponentTransfer>
    </filter>
    <filter id="rough" x="-15%" y="-15%" width="130%" height="130%">
      <feTurbulence type="fractalNoise" baseFrequency=".018" numOctaves="4" seed="8" result="n"/>
      <feDisplacementMap in="SourceGraphic" in2="n" scale="28" xChannelSelector="R" yChannelSelector="G"/>
    </filter>
    <radialGradient id="vignette" cx="50%" cy="48%" r="72%">
      <stop offset="58%" stop-color="#000" stop-opacity="0"/>
      <stop offset="100%" stop-color="#000" stop-opacity=".72"/>
    </radialGradient>
    
  </defs>
  <rect width="1280" height="1280" fill="#07080b"/>
  
      <rect width="1280" height="1280" fill="#c8bda5"/>
      <rect width="1280" height="1280" fill="#101010" opacity=".08"/>
      <circle cx="640" cy="640" r="40" fill="none" stroke="#12110f" stroke-width="23" opacity="0.92"/><circle cx="640" cy="640" r="80" fill="none" stroke="#12110f" stroke-width="23" opacity="0.8924"/><circle cx="640" cy="640" r="120" fill="none" stroke="#12110f" stroke-width="23" opacity="0.8648"/><circle cx="640" cy="640" r="160" fill="none" stroke="#12110f" stroke-width="23" opacity="0.8372"/><circle cx="640" cy="640" r="200" fill="none" stroke="#12110f" stroke-width="23" opacity="0.8096"/><circle cx="640" cy="640" r="240" fill="none" stroke="#12110f" stroke-width="23" opacity="0.782"/><circle cx="640" cy="640" r="280" fill="none" stroke="#12110f" stroke-width="23" opacity="0.7544"/><circle cx="640" cy="640" r="320" fill="none" stroke="#12110f" stroke-width="23" opacity="0.7268000000000001"/><circle cx="640" cy="640" r="360" fill="none" stroke="#12110f" stroke-width="23" opacity="0.6992"/><circle cx="640" cy="640" r="400" fill="none" stroke="#12110f" stroke-width="23" opacity="0.6716"/><circle cx="640" cy="640" r="440" fill="none" stroke="#12110f" stroke-width="23" opacity="0.644"/><circle cx="640" cy="640" r="480" fill="none" stroke="#12110f" stroke-width="23" opacity="0.6164000000000001"/><circle cx="640" cy="640" r="520" fill="none" stroke="#12110f" stroke-width="23" opacity="0.5888"/><circle cx="640" cy="640" r="560" fill="none" stroke="#12110f" stroke-width="23" opacity="0.5612"/><circle cx="640" cy="640" r="600" fill="none" stroke="#12110f" stroke-width="23" opacity="0.5336"/>
      <circle cx="640" cy="640" r="86" fill="#111"/>
      <circle cx="640" cy="640" r="24" fill="#c8bda5"/>
      <path d="M-40 220 L1320 1040" stroke="#fff4dd" stroke-width="42" opacity=".16"/>
    
  <rect width="1280" height="1280" fill="url(#vignette)"/>
  <rect width="1280" height="1280" filter="url(#grain)" opacity=".75"/>
</svg>
