<?xml version="1.0" encoding="UTF-8"?>
<svg xmlns="http://www.w3.org/2000/svg" width="200" height="200" viewBox="0 0 1280 1280">
  <defs>
    <filter id="grain" x="-20%" y="-20%" width="140%" height="140%">
      <feTurbulence type="fractalNoise" baseFrequency=".72" numOctaves="3" seed="17"/>
      <feColorMatrix type="saturate" values="0"/>
      <feComponentTransfer><feFuncA type="table" tableValues="0 .18"/></feComponentTransfer>
    </filter>
    <filter id="rough" x="-15%" y="-15%" width="130%" height="130%">
      <feTurbulence type="fractalNoise" baseFrequency=".018" numOctaves="4" seed="8" result="n"/>
      <feDisplacementMap in="SourceGraphic" in2="n" scale="28" xChannelSelector="R" yChannelSelector="G"/>
    </filter>
    <radialGradient id="vignette" cx="50%" cy="48%" r="72%">
      <stop offset="58%" stop-color="#000" stop-opacity="0"/>
      <stop offset="100%" stop-color="#000" stop-opacity=".72"/>
    </radialGradient>
    
  </defs>
  <rect width="1280" height="1280" fill="#07080b"/>
  
      <rect width="1280" height="1280" fill="#030604"/>
      <linearGradient id="gg" x1="0" y1="0" x2="0" y2="1"><stop stop-color="#030604"/><stop offset=".65" stop-color="#031307"/><stop offset="1" stop-color="#061f0d"/></linearGradient>
      <rect width="1280" height="1280" fill="url(#gg)"/>
      <g transform="perspective(600px)">
        <g transform="rotate(0 640 640)"><line x1="0" y1="-80" x2="0" y2="1360" stroke="#24e36d" stroke-width="3" opacity="0.42"/><line x1="41" y1="-80" x2="41" y2="1360" stroke="#24e36d" stroke-width="3" opacity="0.42"/><line x1="83" y1="-80" x2="83" y2="1360" stroke="#24e36d" stroke-width="3" opacity="0.42"/><line x1="124" y1="-80" x2="124" y2="1360" stroke="#24e36d" stroke-width="3" opacity="0.42"/><line x1="165" y1="-80" x2="165" y2="1360" stroke="#24e36d" stroke-width="3" opacity="0.42"/><line x1="206" y1="-80" x2="206" y2="1360" stroke="#24e36d" stroke-width="3" opacity="0.42"/><line x1="248" y1="-80" x2="248" y2="1360" stroke="#24e36d" stroke-width="3" opacity="0.42"/><line x1="289" y1="-80" x2="289" y2="1360" stroke="#24e36d" stroke-width="3" opacity="0.42"/><line x1="330" y1="-80" x2="330" y2="1360" stroke="#24e36d" stroke-width="3" opacity="0.42"/><line x1="372" y1="-80" x2="372" y2="1360" stroke="#24e36d" stroke-width="3" opacity="0.42"/><line x1="413" y1="-80" x2="413" y2="1360" stroke="#24e36d" stroke-width="3" opacity="0.42"/><line x1="454" y1="-80" x2="454" y2="1360" stroke="#24e36d" stroke-width="3" opacity="0.42"/><line x1="495" y1="-80" x2="495" y2="1360" stroke="#24e36d" stroke-width="3" opacity="0.42"/><line x1="537" y1="-80" x2="537" y2="1360" stroke="#24e36d" stroke-width="3" opacity="0.42"/><line x1="578" y1="-80" x2="578" y2="1360" stroke="#24e36d" stroke-width="3" opacity="0.42"/><line x1="619" y1="-80" x2="619" y2="1360" stroke="#24e36d" stroke-width="3" opacity="0.42"/><line x1="661" y1="-80" x2="661" y2="1360" stroke="#24e36d" stroke-width="3" opacity="0.42"/><line x1="702" y1="-80" x2="702" y2="1360" stroke="#24e36d" stroke-width="3" opacity="0.42"/><line x1="743" y1="-80" x2="743" y2="1360" stroke="#24e36d" stroke-width="3" opacity="0.42"/><line x1="785" y1="-80" x2="785" y2="1360" stroke="#24e36d" stroke-width="3" opacity="0.42"/><line x1="826" y1="-80" x2="826" y2="1360" stroke="#24e36d" stroke-width="3" opacity="0.42"/><line x1="867" y1="-80" x2="867" y2="1360" stroke="#24e36d" stroke-width="3" opacity="0.42"/><line x1="908" y1="-80" x2="908" y2="1360" stroke="#24e36d" stroke-width="3" opacity="0.42"/><line x1="950" y1="-80" x2="950" y2="1360" stroke="#24e36d" stroke-width="3" opacity="0.42"/><line x1="991" y1="-80" x2="991" y2="1360" stroke="#24e36d" stroke-width="3" opacity="0.42"/><line x1="1032" y1="-80" x2="1032" y2="1360" stroke="#24e36d" stroke-width="3" opacity="0.42"/><line x1="1074" y1="-80" x2="1074" y2="1360" stroke="#24e36d" stroke-width="3" opacity="0.42"/><line x1="1115" y1="-80" x2="1115" y2="1360" stroke="#24e36d" stroke-width="3" opacity="0.42"/><line x1="1156" y1="-80" x2="1156" y2="1360" stroke="#24e36d" stroke-width="3" opacity="0.42"/><line x1="1197" y1="-80" x2="1197" y2="1360" stroke="#24e36d" stroke-width="3" opacity="0.42"/><line x1="1239" y1="-80" x2="1239" y2="1360" stroke="#24e36d" stroke-width="3" opacity="0.42"/><line x1="1280" y1="-80" x2="1280" y2="1360" stroke="#24e36d" stroke-width="3" opacity="0.42"/></g>
        <g transform="rotate(90 640 640)"><line x1="0" y1="-80" x2="0" y2="1360" stroke="#24e36d" stroke-width="3" opacity="0.5"/><line x1="56" y1="-80" x2="56" y2="1360" stroke="#24e36d" stroke-width="3" opacity="0.5"/><line x1="111" y1="-80" x2="111" y2="1360" stroke="#24e36d" stroke-width="3" opacity="0.5"/><line x1="167" y1="-80" x2="167" y2="1360" stroke="#24e36d" stroke-width="3" opacity="0.5"/><line x1="223" y1="-80" x2="223" y2="1360" stroke="#24e36d" stroke-width="3" opacity="0.5"/><line x1="278" y1="-80" x2="278" y2="1360" stroke="#24e36d" stroke-width="3" opacity="0.5"/><line x1="334" y1="-80" x2="334" y2="1360" stroke="#24e36d" stroke-width="3" opacity="0.5"/><line x1="390" y1="-80" x2="390" y2="1360" stroke="#24e36d" stroke-width="3" opacity="0.5"/><line x1="445" y1="-80" x2="445" y2="1360" stroke="#24e36d" stroke-width="3" opacity="0.5"/><line x1="501" y1="-80" x2="501" y2="1360" stroke="#24e36d" stroke-width="3" opacity="0.5"/><line x1="557" y1="-80" x2="557" y2="1360" stroke="#24e36d" stroke-width="3" opacity="0.5"/><line x1="612" y1="-80" x2="612" y2="1360" stroke="#24e36d" stroke-width="3" opacity="0.5"/><line x1="668" y1="-80" x2="668" y2="1360" stroke="#24e36d" stroke-width="3" opacity="0.5"/><line x1="723" y1="-80" x2="723" y2="1360" stroke="#24e36d" stroke-width="3" opacity="0.5"/><line x1="779" y1="-80" x2="779" y2="1360" stroke="#24e36d" stroke-width="3" opacity="0.5"/><line x1="835" y1="-80" x2="835" y2="1360" stroke="#24e36d" stroke-width="3" opacity="0.5"/><line x1="890" y1="-80" x2="890" y2="1360" stroke="#24e36d" stroke-width="3" opacity="0.5"/><line x1="946" y1="-80" x2="946" y2="1360" stroke="#24e36d" stroke-width="3" opacity="0.5"/><line x1="1002" y1="-80" x2="1002" y2="1360" stroke="#24e36d" stroke-width="3" opacity="0.5"/><line x1="1057" y1="-80" x2="1057" y2="1360" stroke="#24e36d" stroke-width="3" opacity="0.5"/><line x1="1113" y1="-80" x2="1113" y2="1360" stroke="#24e36d" stroke-width="3" opacity="0.5"/><line x1="1169" y1="-80" x2="1169" y2="1360" stroke="#24e36d" stroke-width="3" opacity="0.5"/><line x1="1224" y1="-80" x2="1224" y2="1360" stroke="#24e36d" stroke-width="3" opacity="0.5"/><line x1="1280" y1="-80" x2="1280" y2="1360" stroke="#24e36d" stroke-width="3" opacity="0.5"/></g>
      </g>
      <path d="M0 725 L1280 725" stroke="#24e36d" stroke-width="5" opacity=".8"/>
      <path d="M-140 1280 L640 725 L1420 1280" stroke="#24e36d" stroke-width="4" opacity=".52" fill="none"/>
    
  <rect width="1280" height="1280" fill="url(#vignette)"/>
  <rect width="1280" height="1280" filter="url(#grain)" opacity=".75"/>
</svg>
