<?xml version="1.0" encoding="UTF-8"?>
<svg xmlns="http://www.w3.org/2000/svg" width="1280" height="1280" viewBox="0 0 1280 1280">
  <defs>
    <filter id="grain" x="-20%" y="-20%" width="140%" height="140%">
      <feTurbulence type="fractalNoise" baseFrequency=".72" numOctaves="3" seed="17"/>
      <feColorMatrix type="saturate" values="0"/>
      <feComponentTransfer><feFuncA type="table" tableValues="0 .18"/></feComponentTransfer>
    </filter>
    <filter id="rough" x="-15%" y="-15%" width="130%" height="130%">
      <feTurbulence type="fractalNoise" baseFrequency=".018" numOctaves="4" seed="8" result="n"/>
      <feDisplacementMap in="SourceGraphic" in2="n" scale="28" xChannelSelector="R" yChannelSelector="G"/>
    </filter>
    <radialGradient id="vignette" cx="50%" cy="48%" r="72%">
      <stop offset="58%" stop-color="#000" stop-opacity="0"/>
      <stop offset="100%" stop-color="#000" stop-opacity=".72"/>
    </radialGradient>
    
  </defs>
  <rect width="1280" height="1280" fill="#07080b"/>
  
      <linearGradient id="g8" x1="0" y1="0" x2="0" y2="1"><stop stop-color="#2d1d58"/><stop offset=".52" stop-color="#17315a"/><stop offset="1" stop-color="#09080d"/></linearGradient>
      <rect width="1280" height="1280" fill="url(#g8)"/>
      <rect x="0" y="685" width="1280" height="260" fill="#fc4277" opacity=".32" filter="url(#rough)"/>
      <rect x="0" y="780" width="1280" height="180" fill="#49d7ff" opacity=".25" filter="url(#rough)"/>
      <g transform="rotate(90 640 640)"><line x1="0" y1="-80" x2="0" y2="1360" stroke="#d5c9ff" stroke-width="2" opacity="0.18"/><line x1="14" y1="-80" x2="14" y2="1360" stroke="#d5c9ff" stroke-width="2" opacity="0.18"/><line x1="27" y1="-80" x2="27" y2="1360" stroke="#d5c9ff" stroke-width="2" opacity="0.18"/><line x1="41" y1="-80" x2="41" y2="1360" stroke="#d5c9ff" stroke-width="2" opacity="0.18"/><line x1="54" y1="-80" x2="54" y2="1360" stroke="#d5c9ff" stroke-width="2" opacity="0.18"/><line x1="68" y1="-80" x2="68" y2="1360" stroke="#d5c9ff" stroke-width="2" opacity="0.18"/><line x1="82" y1="-80" x2="82" y2="1360" stroke="#d5c9ff" stroke-width="2" opacity="0.18"/><line x1="95" y1="-80" x2="95" y2="1360" stroke="#d5c9ff" stroke-width="2" opacity="0.18"/><line x1="109" y1="-80" x2="109" y2="1360" stroke="#d5c9ff" stroke-width="2" opacity="0.18"/><line x1="123" y1="-80" x2="123" y2="1360" stroke="#d5c9ff" stroke-width="2" opacity="0.18"/><line x1="136" y1="-80" x2="136" y2="1360" stroke="#d5c9ff" stroke-width="2" opacity="0.18"/><line x1="150" y1="-80" x2="150" y2="1360" stroke="#d5c9ff" stroke-width="2" opacity="0.18"/><line x1="163" y1="-80" x2="163" y2="1360" stroke="#d5c9ff" stroke-width="2" opacity="0.18"/><line x1="177" y1="-80" x2="177" y2="1360" stroke="#d5c9ff" stroke-width="2" opacity="0.18"/><line x1="191" y1="-80" x2="191" y2="1360" stroke="#d5c9ff" stroke-width="2" opacity="0.18"/><line x1="204" y1="-80" x2="204" y2="1360" stroke="#d5c9ff" stroke-width="2" opacity="0.18"/><line x1="218" y1="-80" x2="218" y2="1360" stroke="#d5c9ff" stroke-width="2" opacity="0.18"/><line x1="231" y1="-80" x2="231" y2="1360" stroke="#d5c9ff" stroke-width="2" opacity="0.18"/><line x1="245" y1="-80" x2="245" y2="1360" stroke="#d5c9ff" stroke-width="2" opacity="0.18"/><line x1="259" y1="-80" x2="259" y2="1360" stroke="#d5c9ff" stroke-width="2" opacity="0.18"/><line x1="272" y1="-80" x2="272" y2="1360" stroke="#d5c9ff" stroke-width="2" opacity="0.18"/><line x1="286" y1="-80" x2="286" y2="1360" stroke="#d5c9ff" stroke-width="2" opacity="0.18"/><line x1="300" y1="-80" x2="300" y2="1360" stroke="#d5c9ff" stroke-width="2" opacity="0.18"/><line x1="313" y1="-80" x2="313" y2="1360" stroke="#d5c9ff" stroke-width="2" opacity="0.18"/><line x1="327" y1="-80" x2="327" y2="1360" stroke="#d5c9ff" stroke-width="2" opacity="0.18"/><line x1="340" y1="-80" x2="340" y2="1360" stroke="#d5c9ff" stroke-width="2" opacity="0.18"/><line x1="354" y1="-80" x2="354" y2="1360" stroke="#d5c9ff" stroke-width="2" opacity="0.18"/><line x1="368" y1="-80" x2="368" y2="1360" stroke="#d5c9ff" stroke-width="2" opacity="0.18"/><line x1="381" y1="-80" x2="381" y2="1360" stroke="#d5c9ff" stroke-width="2" opacity="0.18"/><line x1="395" y1="-80" x2="395" y2="1360" stroke="#d5c9ff" stroke-width="2" opacity="0.18"/><line x1="409" y1="-80" x2="409" y2="1360" stroke="#d5c9ff" stroke-width="2" opacity="0.18"/><line x1="422" y1="-80" x2="422" y2="1360" stroke="#d5c9ff" stroke-width="2" opacity="0.18"/><line x1="436" y1="-80" x2="436" y2="1360" stroke="#d5c9ff" stroke-width="2" opacity="0.18"/><line x1="449" y1="-80" x2="449" y2="1360" stroke="#d5c9ff" stroke-width="2" opacity="0.18"/><line x1="463" y1="-80" x2="463" y2="1360" stroke="#d5c9ff" stroke-width="2" opacity="0.18"/><line x1="477" y1="-80" x2="477" y2="1360" stroke="#d5c9ff" stroke-width="2" opacity="0.18"/><line x1="490" y1="-80" x2="490" y2="1360" stroke="#d5c9ff" stroke-width="2" opacity="0.18"/><line x1="504" y1="-80" x2="504" y2="1360" stroke="#d5c9ff" stroke-width="2" opacity="0.18"/><line x1="517" y1="-80" x2="517" y2="1360" stroke="#d5c9ff" stroke-width="2" opacity="0.18"/><line x1="531" y1="-80" x2="531" y2="1360" stroke="#d5c9ff" stroke-width="2" opacity="0.18"/><line x1="545" y1="-80" x2="545" y2="1360" stroke="#d5c9ff" stroke-width="2" opacity="0.18"/><line x1="558" y1="-80" x2="558" y2="1360" stroke="#d5c9ff" stroke-width="2" opacity="0.18"/><line x1="572" y1="-80" x2="572" y2="1360" stroke="#d5c9ff" stroke-width="2" opacity="0.18"/><line x1="586" y1="-80" x2="586" y2="1360" stroke="#d5c9ff" stroke-width="2" opacity="0.18"/><line x1="599" y1="-80" x2="599" y2="1360" stroke="#d5c9ff" stroke-width="2" opacity="0.18"/><line x1="613" y1="-80" x2="613" y2="1360" stroke="#d5c9ff" stroke-width="2" opacity="0.18"/><line x1="626" y1="-80" x2="626" y2="1360" stroke="#d5c9ff" stroke-width="2" opacity="0.18"/><line x1="640" y1="-80" x2="640" y2="1360" stroke="#d5c9ff" stroke-width="2" opacity="0.18"/><line x1="654" y1="-80" x2="654" y2="1360" stroke="#d5c9ff" stroke-width="2" opacity="0.18"/><line x1="667" y1="-80" x2="667" y2="1360" stroke="#d5c9ff" stroke-width="2" opacity="0.18"/><line x1="681" y1="-80" x2="681" y2="1360" stroke="#d5c9ff" stroke-width="2" opacity="0.18"/><line x1="694" y1="-80" x2="694" y2="1360" stroke="#d5c9ff" stroke-width="2" opacity="0.18"/><line x1="708" y1="-80" x2="708" y2="1360" stroke="#d5c9ff" stroke-width="2" opacity="0.18"/><line x1="722" y1="-80" x2="722" y2="1360" stroke="#d5c9ff" stroke-width="2" opacity="0.18"/><line x1="735" y1="-80" x2="735" y2="1360" stroke="#d5c9ff" stroke-width="2" opacity="0.18"/><line x1="749" y1="-80" x2="749" y2="1360" stroke="#d5c9ff" stroke-width="2" opacity="0.18"/><line x1="763" y1="-80" x2="763" y2="1360" stroke="#d5c9ff" stroke-width="2" opacity="0.18"/><line x1="776" y1="-80" x2="776" y2="1360" stroke="#d5c9ff" stroke-width="2" opacity="0.18"/><line x1="790" y1="-80" x2="790" y2="1360" stroke="#d5c9ff" stroke-width="2" opacity="0.18"/><line x1="803" y1="-80" x2="803" y2="1360" stroke="#d5c9ff" stroke-width="2" opacity="0.18"/><line x1="817" y1="-80" x2="817" y2="1360" stroke="#d5c9ff" stroke-width="2" opacity="0.18"/><line x1="831" y1="-80" x2="831" y2="1360" stroke="#d5c9ff" stroke-width="2" opacity="0.18"/><line x1="844" y1="-80" x2="844" y2="1360" stroke="#d5c9ff" stroke-width="2" opacity="0.18"/><line x1="858" y1="-80" x2="858" y2="1360" stroke="#d5c9ff" stroke-width="2" opacity="0.18"/><line x1="871" y1="-80" x2="871" y2="1360" stroke="#d5c9ff" stroke-width="2" opacity="0.18"/><line x1="885" y1="-80" x2="885" y2="1360" stroke="#d5c9ff" stroke-width="2" opacity="0.18"/><line x1="899" y1="-80" x2="899" y2="1360" stroke="#d5c9ff" stroke-width="2" opacity="0.18"/><line x1="912" y1="-80" x2="912" y2="1360" stroke="#d5c9ff" stroke-width="2" opacity="0.18"/><line x1="926" y1="-80" x2="926" y2="1360" stroke="#d5c9ff" stroke-width="2" opacity="0.18"/><line x1="940" y1="-80" x2="940" y2="1360" stroke="#d5c9ff" stroke-width="2" opacity="0.18"/><line x1="953" y1="-80" x2="953" y2="1360" stroke="#d5c9ff" stroke-width="2" opacity="0.18"/><line x1="967" y1="-80" x2="967" y2="1360" stroke="#d5c9ff" stroke-width="2" opacity="0.18"/><line x1="980" y1="-80" x2="980" y2="1360" stroke="#d5c9ff" stroke-width="2" opacity="0.18"/><line x1="994" y1="-80" x2="994" y2="1360" stroke="#d5c9ff" stroke-width="2" opacity="0.18"/><line x1="1008" y1="-80" x2="1008" y2="1360" stroke="#d5c9ff" stroke-width="2" opacity="0.18"/><line x1="1021" y1="-80" x2="1021" y2="1360" stroke="#d5c9ff" stroke-width="2" opacity="0.18"/><line x1="1035" y1="-80" x2="1035" y2="1360" stroke="#d5c9ff" stroke-width="2" opacity="0.18"/><line x1="1049" y1="-80" x2="1049" y2="1360" stroke="#d5c9ff" stroke-width="2" opacity="0.18"/><line x1="1062" y1="-80" x2="1062" y2="1360" stroke="#d5c9ff" stroke-width="2" opacity="0.18"/><line x1="1076" y1="-80" x2="1076" y2="1360" stroke="#d5c9ff" stroke-width="2" opacity="0.18"/><line x1="1089" y1="-80" x2="1089" y2="1360" stroke="#d5c9ff" stroke-width="2" opacity="0.18"/><line x1="1103" y1="-80" x2="1103" y2="1360" stroke="#d5c9ff" stroke-width="2" opacity="0.18"/><line x1="1117" y1="-80" x2="1117" y2="1360" stroke="#d5c9ff" stroke-width="2" opacity="0.18"/><line x1="1130" y1="-80" x2="1130" y2="1360" stroke="#d5c9ff" stroke-width="2" opacity="0.18"/><line x1="1144" y1="-80" x2="1144" y2="1360" stroke="#d5c9ff" stroke-width="2" opacity="0.18"/><line x1="1157" y1="-80" x2="1157" y2="1360" stroke="#d5c9ff" stroke-width="2" opacity="0.18"/><line x1="1171" y1="-80" x2="1171" y2="1360" stroke="#d5c9ff" stroke-width="2" opacity="0.18"/><line x1="1185" y1="-80" x2="1185" y2="1360" stroke="#d5c9ff" stroke-width="2" opacity="0.18"/><line x1="1198" y1="-80" x2="1198" y2="1360" stroke="#d5c9ff" stroke-width="2" opacity="0.18"/><line x1="1212" y1="-80" x2="1212" y2="1360" stroke="#d5c9ff" stroke-width="2" opacity="0.18"/><line x1="1226" y1="-80" x2="1226" y2="1360" stroke="#d5c9ff" stroke-width="2" opacity="0.18"/><line x1="1239" y1="-80" x2="1239" y2="1360" stroke="#d5c9ff" stroke-width="2" opacity="0.18"/><line x1="1253" y1="-80" x2="1253" y2="1360" stroke="#d5c9ff" stroke-width="2" opacity="0.18"/><line x1="1266" y1="-80" x2="1266" y2="1360" stroke="#d5c9ff" stroke-width="2" opacity="0.18"/><line x1="1280" y1="-80" x2="1280" y2="1360" stroke="#d5c9ff" stroke-width="2" opacity="0.18"/></g>
      <path d="M90 700 C310 590 470 760 680 650 C830 570 970 685 1190 625" stroke="#f7e7ff" stroke-width="17" opacity=".3" fill="none"/>
    
  <rect width="1280" height="1280" fill="url(#vignette)"/>
  <rect width="1280" height="1280" filter="url(#grain)" opacity=".75"/>
</svg>
